<svg width="46" height="15" viewBox="0 0 46 15" fill="none" xmlns="http://www.w3.org/2000/svg">
<path d="M4.89765 1.05205L3.5567 1.04584H1.48047C1.33743 1.04584 0.223193 1.05644 0.223193 1.05644L0.203454 2.84037L0 2.84653L0.0126546 0.841623L0.00459644 0.0179039C0.712844 0.0517931 3.26964 0.0740841 5.9227 0.0740841C9.01674 0.0740841 11.0102 0.0437998 11.7922 0.0205927L11.7833 0.932533L11.7994 2.96069L11.5889 2.95796C11.5898 2.79307 11.5547 2.11994 11.5566 2.054C11.5575 2.02994 11.5116 1.12598 11.5061 1.05827L10.6178 1.04578H7.95567L6.93608 1.04932L6.93699 13.5586C6.93699 13.5764 6.95592 14.3797 6.96041 14.5464C7.06306 14.5607 8.04934 14.6275 8.22753 14.6284L8.29681 14.6275L8.29779 14.968C8.24376 14.968 8.17805 14.9742 8.12321 14.9733C7.5625 14.9671 6.65804 14.9002 6.0155 14.9002C5.38286 14.9002 4.49004 14.9626 3.83035 14.9724C3.81235 14.9734 3.67736 14.9698 3.6269 14.9672L3.62512 14.6034C3.63236 14.6043 3.6719 14.6034 3.73398 14.6007C4.01299 14.59 4.69971 14.5445 4.87791 14.5294L4.90668 14.525L4.89765 1.05205ZM21.942 0.000991139C21.942 0.000991139 22.9418 3.07839 23.1047 3.52946C23.2676 3.97967 26.323 11.7685 26.323 11.7685C26.323 11.7685 27.7575 8.41297 29.0355 4.81233C29.2948 4.08306 29.6341 3.13276 29.8842 2.36251L30.6528 0H31.4394C31.4394 0 31.6347 1.37562 31.703 1.98891C31.9046 3.77112 33.2185 11.0143 33.6803 13.3973C33.7955 13.9937 33.8826 14.509 33.8826 14.509C34.0178 14.5188 34.5499 14.5714 34.8647 14.5972C34.9301 14.6026 35.107 14.6124 35.147 14.6124L35.1492 14.9707C35.1492 14.9707 35.0058 14.9787 34.9274 14.9787C34.2227 14.9743 33.1238 14.911 32.4473 14.911C31.8443 14.911 31.2647 14.9626 30.6618 14.9751C30.5591 14.9778 30.4556 14.9725 30.3512 14.9725V14.6176C30.3549 14.6167 30.4349 14.6123 30.4772 14.6141C30.7715 14.5998 31.5518 14.524 31.6292 14.5205C31.6301 14.3903 31.5869 13.9392 31.5239 13.4783C31.4798 13.1529 31.4051 12.5966 31.3259 12.0484C31.154 10.9831 30.3594 6.56846 30.1236 5.34269C30.0849 5.14121 30.0605 5.02892 30.0605 5.02892C30.0605 5.02892 27.6001 11.2827 27.1041 12.5147C27.0556 12.635 27.0205 12.7206 27.0097 12.749C26.5353 13.9356 26.1367 14.993 26.1367 14.993L25.4374 14.9894L21.6026 5.2259L21.5118 4.99855C21.5118 4.99855 21.177 6.82876 20.6937 9.41138C20.4391 10.8074 19.9098 14.2967 19.8738 14.5267C20.1789 14.5713 20.7792 14.6194 20.943 14.6149C20.9808 14.6149 21.0447 14.6158 21.0924 14.6158V14.9689C21.024 14.9787 20.8639 14.9795 20.8575 14.9795C20.2788 14.967 19.8613 14.9233 19.2367 14.9233C19.0729 14.9233 18.2044 14.9679 17.8985 14.9786C17.7707 14.9848 17.5907 14.9706 17.5556 14.9714L17.5565 14.6221C17.5862 14.6221 17.6465 14.6096 17.6853 14.6087C17.9624 14.5962 18.3881 14.5543 18.749 14.507C18.7787 14.335 19.091 12.6153 19.19 12.0064C19.5734 9.98899 20.7029 3.25212 20.8451 2.34371C20.9692 1.36212 21.1132 0.141723 21.1258 0.00714642C21.4255 0.0125946 21.942 0.000991139 21.942 0.000991139ZM16.85 14.9823C16.3299 14.9823 15.4479 14.8967 14.7864 14.8967C14.1321 14.8967 13.2448 14.9814 12.6058 14.9814C12.5518 14.9823 12.4555 14.9707 12.4033 14.9707V14.615C12.5293 14.6124 13.0935 14.5615 13.251 14.5499C13.4346 14.5366 13.6057 14.5277 13.6803 14.5037C13.6803 14.5037 13.6821 14.0757 13.6839 13.4116C13.6912 11.116 13.7047 4.62864 13.683 1.69212C13.6812 1.28948 13.6801 0.886836 13.6795 0.484178C13.5597 0.472574 13.3923 0.456514 13.2727 0.440523C13.1224 0.432525 12.505 0.374507 12.3997 0.368282L12.397 0.0134463C13.009 0.0134463 13.918 0.0749306 14.655 0.0749306C15.3596 0.0749306 16.3163 0.0133768 17.0389 0.0133768L17.0381 0.383421C16.9229 0.391419 16.6438 0.408401 16.6348 0.409248C16.4242 0.429766 15.833 0.495782 15.6881 0.505473V1.64744C15.6872 4.27651 15.6854 11.1534 15.6845 13.4695V14.2201C15.6835 14.3966 15.6854 14.5026 15.6872 14.5098C15.6907 14.5222 16.0607 14.5571 16.1462 14.5624C16.309 14.5811 16.9813 14.6105 17.0019 14.6149H17.0461V14.9706C17.0021 14.9706 16.895 14.9823 16.85 14.9823ZM38.8694 1.08505L38.8667 6.97233L42.6827 6.98487C42.7005 6.98487 43.6924 6.95444 43.7167 6.95444C43.7773 6.95444 44.4581 6.91533 44.4846 6.90633C44.4846 6.90633 44.4949 6.84478 44.5106 6.8002C44.5663 6.44358 44.6355 6.10581 44.6534 5.84101C44.6534 5.84101 44.6718 5.72872 44.6723 5.65206L44.8892 5.64762C44.8903 5.67435 44.9011 5.74206 44.9 5.83833C44.8973 6.19319 44.8713 6.93044 44.8724 7.41263C44.874 8.1089 44.893 8.73563 44.8967 9.05127C44.8994 9.14042 44.894 9.28388 44.894 9.28388H44.6555C44.6518 9.24906 44.6469 9.21429 44.642 9.17963C44.6004 8.77929 44.5663 8.49585 44.5036 8.08667C44.5014 8.06615 44.4879 7.99211 44.4836 7.94577C44.3619 7.93779 44.0406 7.92617 43.8697 7.92081C43.7951 7.91904 42.8655 7.91192 41.819 7.9109C41.3901 7.91004 40.6189 7.93056 40.2923 7.9297C39.9099 7.9297 39.2783 7.95376 38.8661 7.96892L38.8694 13.3062L38.8856 13.9945L41.2025 14.0346L44.5014 14.0311C44.5171 14.0311 45.2564 14.0016 45.4889 14.006C45.5376 14.0069 45.6366 13.9989 45.6366 13.9989C45.6582 13.8259 45.6852 13.4764 45.7118 13.143C45.7145 13.1038 45.7977 12.2186 45.7977 11.9805L46 11.9778C46 12.2034 45.9567 15 45.9567 15C45.5852 15 44.4441 14.9982 43.0336 14.9778C42.1797 14.9661 41.2273 14.9661 40.2869 14.9527C39.5254 14.9411 38.7715 14.9144 38.0868 14.9152C37.1085 14.9162 36.1518 14.9803 35.7797 14.9803C35.6943 14.9813 35.5439 14.9751 35.512 14.9751V14.6229H35.5802C35.8095 14.6211 36.4839 14.5818 36.8349 14.5177C36.8349 14.4473 36.8581 13.5763 36.8581 13.5585L36.857 2.00932C36.857 1.47532 36.8473 0.584721 36.8473 0.506255C36.6483 0.483048 36.5774 0.470592 36.5358 0.461678C36.3243 0.432246 35.9079 0.396583 35.6856 0.380523C35.6299 0.381551 35.5737 0.377384 35.5191 0.368068C35.5191 0.368068 35.518 0.0222161 35.5164 0.0176893C35.5667 0.0203786 35.671 0.0133021 35.8571 0.0141539C36.2508 0.0150699 36.9744 0.0730231 37.8586 0.0738695C38.4151 0.0747909 39.3112 0.0480428 39.9537 0.0391285C40.8693 0.0391285 41.5648 0.0311357 42.4512 0.0248357C43.8995 0.0159214 45.1358 0.00523964 45.6193 0.00346643C45.7604 0.00255036 45.8372 0.00169822 45.8372 0.00169822C45.8372 0.0292928 45.8361 0.0605681 45.8361 0.097077C45.8372 0.207595 45.8323 0.402878 45.8345 0.641748C45.8378 1.38607 45.8567 2.55666 45.8567 2.9391L45.6533 2.94001L45.6517 2.8348C45.6312 2.57364 45.5868 1.83639 45.5311 1.21593C45.5257 1.16064 45.5154 1.11784 45.5154 1.11784C45.3954 1.11339 44.9 1.09732 44.8913 1.09019C44.8832 1.08307 44.489 1.07675 44.4809 1.07235C44.4771 1.07059 43.1824 1.06244 41.8466 1.06169C40.9358 1.06084 40.0392 1.06705 39.4897 1.06705C39.3545 1.06635 38.8694 1.08505 38.8694 1.08505Z" fill="#E90606"/>
</svg>
