<svg width="109" height="33" viewBox="0 0 109 33" fill="none" xmlns="http://www.w3.org/2000/svg">
<path d="M1.6807 6.41146H5.88245V25H1.6807V6.41146ZM9.23072 6.41146H13.4325V25H9.23072V6.41146Z" fill="#28282B"/>
<circle cx="18.5" cy="16.5" r="2.5" fill="#386FDE"/>
<path d="M22.6807 6.41146H26.8824V21.2016H39.6894V25H22.6807V6.41146ZM52.3285 10.1426L48.8663 18.5125H57.1353L53.7739 10.1426H52.3285ZM49.7066 6.41146H56.5302L64.4295 25H59.9925L58.7824 22.1764H47.32L46.1099 25H41.6056L49.7066 6.41146ZM67.1273 6.41146H79.0939C82.4553 6.41146 84.8419 8.36108 84.8419 11.3863C84.8419 12.7309 84.3713 13.8738 83.3965 14.546C85.1108 15.42 86.1192 16.9326 86.1192 19.2184C86.1192 22.4117 83.5309 25 80.0015 25H67.1273V6.41146ZM71.3291 10.1762V13.5712H79.2284C80.1359 13.5712 80.741 12.7309 80.741 11.8905C80.741 11.0838 80.304 10.1762 78.8922 10.1762H71.3291ZM71.3291 17.2352V21.2016H79.867C81.2116 21.2016 82.0183 20.3613 82.0183 19.2184C82.0183 18.0083 81.178 17.2352 79.9679 17.2352H71.3291ZM106.915 8.73083L104.898 11.8233C102.714 10.3107 100.495 9.70564 97.537 9.70564C93.9066 9.70564 93.0327 10.6468 93.0327 11.6889C93.0327 12.7645 94.0075 13.0334 95.4529 13.2015L101.033 13.8402C104.999 14.3108 107.453 15.9915 107.453 19.4201C107.453 23.5882 103.386 25.4706 97.8059 25.4706C94.0075 25.4706 91.1503 24.6639 88.1923 22.479L90.1755 19.2184C92.7302 20.9999 95.2176 21.8067 98.2765 21.8067C101.234 21.8067 103.386 21.0672 103.386 19.4873C103.386 18.4789 102.848 17.9747 101.268 17.8066L95.0159 17.1007C91.2175 16.6637 88.8982 15.1847 88.8982 11.7225C88.8982 7.78964 92.7974 5.97448 97.537 5.97448C100.999 5.97448 104.024 6.57953 106.915 8.73083Z" fill="#28282B"/>
</svg>
