<svg width="243" height="77" viewBox="0 0 243 77" fill="none" xmlns="http://www.w3.org/2000/svg">
<path d="M93.8904 42.2938C93.8904 47.1305 98.3628 50.925 105.444 50.925H111.94V46.3383H106.03C102.249 46.3383 100.12 44.5871 100.12 42.2938C100.12 40.0005 102.196 38.2492 106.03 38.2492H111.94V33.6626H105.444C98.3628 33.6626 93.8904 37.457 93.8904 42.2938Z" fill="#CC0033"/>
<path d="M165.396 33.4546C163 33.4546 160.764 33.8298 157.889 35.3726C155.013 33.8298 152.778 33.4546 150.381 33.4546C145.057 33.4546 141.383 36.3317 141.383 40.4179V50.9671H147.612V40.6681C147.612 38.9168 148.997 38.0412 151.233 38.0412C153.47 38.0412 154.801 38.9585 154.801 40.4596V50.9671H161.03V40.4596C161.03 38.9585 162.201 38.0412 164.597 38.0412C166.993 38.0412 168.218 38.9168 168.218 40.6681V50.9671H174.447V40.4179C174.447 36.2899 170.72 33.4546 165.449 33.4546H165.396Z" fill="#CC0033"/>
<path d="M189.408 33.4546C182.007 33.4546 177.802 37.9578 177.802 42.3359C177.802 46.714 182.007 51.1755 189.408 51.1755C196.809 51.1755 200.962 46.6307 200.962 42.3359C200.962 38.0412 196.756 33.4546 189.408 33.4546ZM189.355 46.589C185.894 46.589 184.031 44.4624 184.031 42.2943C184.031 40.126 185.894 37.9995 189.355 37.9995C192.816 37.9995 194.732 40.126 194.732 42.2943C194.732 44.4624 192.869 46.589 189.355 46.589Z" fill="#CC0033"/>
<path d="M58.111 25.8237V34.5383C56.6201 33.8712 54.8099 33.4542 52.7334 33.4542C45.2794 33.4542 41.2861 37.9991 41.2861 42.3355C41.2861 46.672 45.2794 51.1751 52.7334 51.1751C60.1875 51.1751 60.4537 49.0486 64.3937 47.6309V25.8237H58.1642H58.111ZM47.4623 42.2938C47.4623 40.1256 49.3259 37.9991 52.7867 37.9991C56.2475 37.9991 58.0577 40.0422 58.111 42.1687V42.3772C58.0577 44.5037 56.2475 46.5469 52.7867 46.5469C49.3259 46.5469 47.4623 44.4204 47.4623 42.2521V42.2938Z" fill="#CC0033"/>
<path d="M82.8154 25.8237V26.9913H80.6327V31.2859H79.0358V26.9913H76.8524V25.8237H82.8693H82.8154Z" fill="#CC0033"/>
<path d="M90.0037 25.8237V26.9913H87.8211V31.2859H86.2234V26.9913H84.0408V25.8237H90.0569H90.0037Z" fill="#CC0033"/>
<path d="M70.7299 25.8237L73.9245 29.3263V25.8237H75.4682V31.2859H73.765L70.6236 27.7835V31.2859H69.0791V25.8237H70.7831H70.7299Z" fill="#CC0033"/>
<path d="M79.4081 33.4546C72.0078 33.4546 67.8013 37.9578 67.8013 42.3359C67.8013 46.714 72.0078 51.1755 79.4081 51.1755C86.8091 51.1755 90.9625 46.6307 90.9625 42.3359C90.9625 38.0412 86.756 33.4546 79.4081 33.4546ZM79.4081 46.589C75.9476 46.589 74.084 44.4624 74.084 42.2943C74.084 40.126 75.9476 37.9995 79.4081 37.9995C82.8693 37.9995 84.786 40.126 84.786 42.2943C84.786 44.4624 82.9225 46.589 79.4081 46.589Z" fill="#CC0033"/>
<path d="M126.422 33.4546C119.021 33.4546 114.815 37.9578 114.815 42.3359C114.815 46.714 119.021 51.1755 126.422 51.1755C133.823 51.1755 137.976 46.6307 137.976 42.3359C137.976 38.0412 133.77 33.4546 126.422 33.4546ZM126.422 46.589C122.961 46.589 121.098 44.4624 121.098 42.2943C121.098 40.126 122.961 37.9995 126.422 37.9995C129.883 37.9995 131.8 40.126 131.8 42.2943C131.8 44.4624 129.936 46.589 126.422 46.589Z" fill="#CC0033"/>
</svg>
