<svg width="243" height="77" viewBox="0 0 243 77" fill="none" xmlns="http://www.w3.org/2000/svg">
<mask id="mask0_991_273" style="mask-type:luminance" maskUnits="userSpaceOnUse" x="102" y="19" width="40" height="40">
<path d="M141.437 19.0527H102.052V58.4682H141.437V19.0527Z" fill="white"/>
</mask>
<g mask="url(#mask0_991_273)">
<path d="M141.437 19.0527H102.052V58.4682H141.437V19.0527Z" fill="#E20074"/>
<path d="M116.933 42.2292H112.555V37.8935H116.933V42.2292ZM112.555 27.9214V35.2921H113.867V35.0753C113.867 31.6068 115.836 29.4389 119.559 29.4389H119.775V45.0474C119.775 47.2152 118.902 48.0824 116.709 48.0824H116.054V49.5999H127.429V48.0824H126.772C124.586 48.0824 123.707 47.2152 123.707 45.0474V29.4389H123.924C127.645 29.4389 129.614 31.6068 129.614 35.0753V35.2921H130.928V27.9214H112.555ZM126.556 42.2292H130.934V37.8935H126.556V42.2292Z" fill="white"/>
</g>
</svg>
