<svg width="243" height="77" viewBox="0 0 243 77" fill="none" xmlns="http://www.w3.org/2000/svg">
<g clip-path="url(#clip0_991_292)">
<mask id="mask0_991_292" style="mask-type:luminance" maskUnits="userSpaceOnUse" x="78" y="4" width="88" height="70">
<path d="M165.269 4.24463H78.8311V73.3946H165.269V4.24463Z" fill="white"/>
</mask>
<g mask="url(#mask0_991_292)">
<path fill-rule="evenodd" clip-rule="evenodd" d="M131.204 49.0444L131.203 71.9605H148.65V67.4355H136.729V49.0444H131.204Z" fill="#001928"/>
<path fill-rule="evenodd" clip-rule="evenodd" d="M118.863 71.9595H124.365V55.4341H118.863V71.9595Z" fill="#001928"/>
<path fill-rule="evenodd" clip-rule="evenodd" d="M109.791 49.0444L107.218 60.5032L104.646 49.0444H99.5431L96.9711 60.5032L94.3981 49.0444H89.2971L94.4211 71.8654H99.5211L102.096 60.4038L104.667 71.8654H109.77L114.894 49.0444H109.791Z" fill="#001928"/>
<path fill-rule="evenodd" clip-rule="evenodd" d="M123.593 6.28743C123.593 7.41543 122.68 8.32883 121.552 8.32883C120.425 8.32883 119.51 7.41543 119.51 6.28743C119.51 5.15943 120.425 4.24463 121.552 4.24463C122.68 4.24463 123.593 5.15943 123.593 6.28743Z" fill="#00C0FF"/>
<path fill-rule="evenodd" clip-rule="evenodd" d="M123.593 31.6605C123.593 32.7885 122.68 33.7019 121.552 33.7019C120.425 33.7019 119.51 32.7885 119.51 31.6605C119.51 30.5325 120.425 29.6191 121.552 29.6191C122.68 29.6191 123.593 30.5325 123.593 31.6605Z" fill="#0066C0"/>
<path fill-rule="evenodd" clip-rule="evenodd" d="M164.274 35.8417C164.274 36.9697 163.358 37.883 162.233 37.883C161.103 37.883 160.19 36.9697 160.19 35.8417C160.19 34.7136 161.105 33.8003 162.231 33.8003C163.358 33.8003 164.274 34.7136 164.274 35.8417Z" fill="#009999"/>
<path fill-rule="evenodd" clip-rule="evenodd" d="M140.141 43.6825C140.141 44.8105 139.227 45.7253 138.099 45.7253C136.97 45.7253 136.056 44.8105 136.056 43.6825C136.056 42.5559 136.971 41.6411 138.099 41.6411C139.227 41.6411 140.141 42.5545 140.141 43.6825Z" fill="#00C0A0"/>
<path fill-rule="evenodd" clip-rule="evenodd" d="M82.9151 35.8417C82.9151 36.9697 82.0021 37.883 80.8741 37.883C79.7461 37.883 78.8311 36.9697 78.8311 35.8417C78.8311 34.7136 79.7461 33.8003 80.8741 33.8003C82.0021 33.8003 82.9151 34.7136 82.9151 35.8417Z" fill="#FF0080"/>
<path fill-rule="evenodd" clip-rule="evenodd" d="M107.049 43.6825C107.049 44.8105 106.134 45.7238 105.007 45.7238C103.878 45.7238 102.964 44.8105 102.964 43.6825C102.964 42.5545 103.879 41.6411 105.007 41.6411C106.134 41.6411 107.049 42.5545 107.049 43.6825Z" fill="#D80050"/>
<path fill-rule="evenodd" clip-rule="evenodd" d="M124.188 49.0636C124.188 50.5172 123.01 51.6942 121.554 51.6942C120.097 51.6942 118.916 50.5172 118.916 49.0636C118.916 47.6042 120.097 46.4272 121.554 46.4272C123.01 46.4272 124.188 47.6042 124.188 49.0636Z" fill="#D71718"/>
<path fill-rule="evenodd" clip-rule="evenodd" d="M124.188 49.0636C124.188 50.5172 123.01 51.6942 121.554 51.6942C120.097 51.6942 118.916 50.5172 118.916 49.0636C118.916 47.6042 120.097 46.4272 121.554 46.4272C123.01 46.4272 124.188 47.6042 124.188 49.0636Z" fill="#CC0000"/>
<path fill-rule="evenodd" clip-rule="evenodd" d="M106.573 25.6302C106.573 26.7582 105.66 27.6716 104.532 27.6716C103.405 27.6716 102.489 26.7582 102.489 25.6302C102.489 24.5022 103.405 23.5889 104.532 23.5889C105.66 23.5889 106.573 24.5022 106.573 25.6302Z" fill="#202099"/>
<path fill-rule="evenodd" clip-rule="evenodd" d="M117.839 41.1361C117.839 42.2641 116.926 43.1789 115.798 43.1789C114.67 43.1789 113.756 42.2655 113.756 41.1361C113.756 40.0081 114.67 39.0947 115.798 39.0947C116.926 39.0947 117.839 40.0081 117.839 41.1361Z" fill="#801080"/>
<path fill-rule="evenodd" clip-rule="evenodd" d="M140.614 25.6302C140.614 26.7582 139.701 27.673 138.575 27.673C137.447 27.673 136.533 26.7582 136.533 25.6302C136.533 24.5037 137.447 23.5889 138.575 23.5889C139.701 23.5889 140.614 24.5037 140.614 25.6302Z" fill="#50D8D8"/>
<path fill-rule="evenodd" clip-rule="evenodd" d="M129.35 41.1375C129.35 42.2655 128.435 43.1789 127.309 43.1789C126.181 43.1789 125.266 42.2655 125.267 41.1375C125.266 40.0095 126.181 39.0947 127.309 39.0947C128.435 39.0962 129.35 40.0095 129.35 41.1375Z" fill="#00C0CC"/>
</g>
</g>
<defs>
<clipPath id="clip0_991_292">
<rect width="243" height="77" fill="white"/>
</clipPath>
</defs>
</svg>
