<svg width="227" height="71" viewBox="0 0 227 71" fill="none" xmlns="http://www.w3.org/2000/svg">
<mask id="mask0_991_393" style="mask-type:luminance" maskUnits="userSpaceOnUse" x="25" y="24" width="177" height="24">
<path d="M201.941 24.0806H25.5695V47.4599H201.941V24.0806Z" fill="white"/>
</mask>
<g mask="url(#mask0_991_393)">
<path d="M87.9365 47.2261L85.6725 43.3296C86.7309 41.3132 86.7309 38.9363 86.7309 35.8093C86.7309 31.9127 86.7309 28.9903 84.4677 26.6232C83.6881 25.7771 82.7308 25.1111 81.6647 24.6718C80.5977 24.2326 79.4482 24.0309 78.2945 24.0806C77.1442 24.0555 76.0016 24.2685 74.9388 24.7062C73.8761 25.1439 72.9171 25.7967 72.1213 26.6232C69.8581 28.8832 69.8581 31.7471 69.8581 35.7703C69.8581 39.7935 69.7408 42.5892 72.1213 44.9467C72.9111 45.7855 73.8693 46.4494 74.9337 46.895C75.999 47.3289 77.1442 47.5315 78.2945 47.4892C78.9381 47.4798 79.5792 47.4014 80.2058 47.2554L87.9365 47.2261ZM75.3359 42.2094C74.512 41.2353 74.2774 40.1832 74.2774 35.7703C74.2774 31.3575 74.5614 30.2762 75.3359 29.3313C75.7125 28.9576 76.158 28.6599 76.6486 28.4546C77.1349 28.2485 77.6586 28.1425 78.1866 28.1429C78.7188 28.1436 79.245 28.2495 79.7348 28.4546C80.2228 28.6601 80.6648 28.9578 81.0381 29.3313C81.8611 30.3054 82.0966 31.3575 82.0966 35.7703C82.0966 40.1832 81.8611 41.2547 81.0381 42.2094C80.6742 42.5936 80.2338 42.8987 79.7449 43.1056C79.2493 43.3003 78.7196 43.3963 78.1866 43.3881C77.656 43.3986 77.1289 43.2991 76.6384 43.0958C76.1487 42.8913 75.7049 42.5897 75.3359 42.2094Z" fill="black"/>
<path d="M140.044 24.3145H144.425V47.2262H140.044V24.3145Z" fill="black"/>
<path d="M33.8883 47.4597C30.4687 47.4597 27.8427 46.7486 25.5695 44.4788L28.4209 41.6148C29.1576 42.2827 30.02 42.7986 30.9585 43.1331C31.897 43.4674 32.8928 43.6136 33.8883 43.5631C36.5045 43.5631 37.9253 42.589 37.9253 40.6992C37.9388 40.3474 37.8822 39.9965 37.7587 39.6666C37.6391 39.3396 37.4522 39.041 37.21 38.7899C36.6431 38.3056 35.9365 38.0123 35.1915 37.9521L32.4284 37.5722C30.7889 37.4335 29.245 36.7468 28.0485 35.624C27.4982 35.0166 27.0722 34.3085 26.7943 33.5393C26.5018 32.7583 26.3718 31.9265 26.4121 31.0942C26.3926 27.0613 29.3615 24.1973 34.3881 24.1973C37.4746 24.1973 39.8556 24.8986 41.7663 26.8178L38.8856 29.5745C38.2647 29.0033 37.5313 28.5664 36.7319 28.2913C35.9324 28.0164 35.0843 27.9093 34.2411 27.9769C31.8601 27.9769 30.6842 29.3017 30.6842 30.8993C30.7031 31.5196 30.9548 32.1104 31.3897 32.5554C32.0056 33.0633 32.7462 33.3995 33.5356 33.5295L36.2694 33.8802C37.9028 33.9241 39.4623 34.5659 40.6493 35.6824C41.2573 36.338 41.73 37.1058 42.0406 37.9424C42.3446 38.7884 42.4809 39.6848 42.4423 40.5823C42.4423 44.9757 38.6504 47.4889 33.8786 47.4889" fill="black"/>
<path d="M48.8407 47.2262V24.3145H63.9205V28.211H53.3382V33.6175H62.3527V37.7186H53.3484V43.3393H63.9307V47.2359H48.8407" fill="black"/>
<path d="M101.811 47.4599C97.1662 47.4599 93.3743 44.2453 93.3743 39.3551V24.3145H97.9109V39.2188C97.9109 41.8489 99.4693 43.3881 101.83 43.3881C104.192 43.3881 105.75 41.8197 105.75 39.2188V24.3145H110.13V39.3357C110.13 44.2064 106.485 47.4405 101.84 47.4405" fill="black"/>
<path d="M131.255 44.9467C130.474 45.791 129.518 46.4552 128.451 46.8927C127.384 47.3303 126.235 47.5305 125.082 47.4795C123.933 47.5106 122.792 47.3012 121.73 46.8648C120.668 46.4285 119.71 45.775 118.919 44.9467C116.695 42.6769 116.695 39.813 116.695 35.7703C116.695 31.7276 116.577 28.9513 118.968 26.594C119.741 25.7572 120.689 25.0987 121.745 24.6645C122.802 24.2304 123.94 24.0311 125.082 24.0807C126.23 24.0647 127.369 24.281 128.43 24.7164C129.492 25.1517 130.453 25.7972 131.255 26.6134C133.518 28.8832 133.518 31.7471 133.518 35.7898C133.518 39.8325 133.518 42.5893 131.255 44.9467ZM127.934 29.3605C127.561 28.9868 127.117 28.6901 126.629 28.4876C126.141 28.2851 125.616 28.1809 125.087 28.1809C124.558 28.1809 124.034 28.2851 123.545 28.4876C123.057 28.6901 122.613 28.9868 122.241 29.3605C121.408 30.3347 121.182 31.3867 121.182 35.7995C121.182 40.2124 121.408 41.2839 122.241 42.2288C122.612 42.605 123.054 42.9038 123.543 43.1077C124.032 43.3117 124.557 43.4167 125.087 43.4167C125.617 43.4167 126.142 43.3117 126.63 43.1077C127.119 42.9038 127.562 42.605 127.934 42.2288C128.757 41.2547 128.992 40.2124 128.992 35.7995C128.992 31.3867 128.786 30.2762 127.934 29.3313V29.3605Z" fill="black"/>
<path d="M165.471 47.2262L164.168 43.1737H156.084L154.674 47.2262H150.01L158.358 24.3145H161.768L170.086 47.2262H165.471ZM160.112 30.9873L157.26 39.3357H162.963L160.112 30.9873Z" fill="black"/>
<path d="M196.238 24.3145H201.941V30.0424H196.238V24.3145Z" fill="black"/>
<path d="M181.982 42.2971V24.3145H179.13V45.1902L181.982 42.2971Z" fill="black"/>
<path d="M183.98 44.3623L181.129 47.2262H201.941V44.3623H183.98Z" fill="black"/>
<path d="M187.684 36.5983V24.3145H184.832V39.4623L187.684 36.5983Z" fill="black"/>
<path d="M189.683 38.6348L186.822 41.4987H201.941V38.6348H189.683Z" fill="black"/>
<path d="M193.377 30.8996V24.3145H190.526V33.7344L193.377 30.8996Z" fill="black"/>
<path d="M195.386 32.9067L192.544 35.7707H201.941V32.9067H195.386Z" fill="black"/>
</g>
</svg>
