<svg width="243" height="77" viewBox="0 0 243 77" fill="none" xmlns="http://www.w3.org/2000/svg">
<mask id="mask0_991_276" style="mask-type:luminance" maskUnits="userSpaceOnUse" x="48" y="13" width="147" height="52">
<path d="M194.952 13.1123H48.9958V64.5066H194.952V13.1123Z" fill="white"/>
</mask>
<g mask="url(#mask0_991_276)">
<path d="M115.123 29.6245H57.2622V45.2185H115.123V29.6245Z" fill="white"/>
<path d="M79.2776 35.538C79.4586 35.7945 79.5356 36.1538 79.5616 36.5386H76.5225C76.5745 36.1281 76.7026 35.7945 76.8576 35.538C77.1147 35.153 77.5269 34.9221 78.0681 34.9221C78.6343 34.9221 79.0204 35.1273 79.2776 35.538ZM67.3041 37.6932C67.0469 37.8728 66.9179 38.1551 66.9179 38.5143C66.9179 38.7451 66.969 38.9248 67.0469 39.0789C67.098 39.1558 67.124 39.207 67.3041 39.3353C67.3041 39.3353 67.6902 39.6434 68.5655 39.5919C69.1838 39.5663 69.7249 39.438 69.7249 39.438V37.488C69.7249 37.488 69.1838 37.3853 68.5655 37.3853C67.6642 37.3596 67.3041 37.6932 67.3041 37.6932ZM95.2426 34.9478C94.6763 34.9478 94.2902 35.153 94.033 35.538C93.775 35.9484 93.6469 36.513 93.6469 37.2313C93.6469 37.9498 93.775 38.5399 94.033 38.9505C94.2902 39.3611 94.7023 39.5407 95.2426 39.5407C95.8097 39.5407 96.1959 39.3353 96.479 38.9505C96.7361 38.5399 96.8911 37.9755 96.8911 37.2313C96.8911 36.513 96.7621 35.9228 96.479 35.538C96.2219 35.1273 95.8097 34.9478 95.2426 34.9478ZM122.667 36.0255C122.667 44.852 115.56 51.9851 106.779 51.9851C105.697 51.9851 104.667 51.8825 103.638 51.6773C101.655 55.218 97.8435 57.6043 93.5179 57.6043C91.6892 57.6043 89.9645 57.1937 88.445 56.4498C86.4362 61.1708 81.7244 64.4809 76.2654 64.4809C70.5483 64.4809 65.7075 60.8887 63.8278 55.8338C63.0035 56.0135 62.1541 56.0905 61.3038 56.0905C54.5063 56.1162 48.9958 50.5738 48.9958 43.723C48.9958 39.1301 51.4678 35.1273 55.1505 32.9978C54.4032 31.253 53.966 29.3542 53.966 27.3272C53.966 19.4756 60.3774 13.1123 68.2824 13.1123C72.9181 13.1123 77.0377 15.319 79.6646 18.7058C82.0335 16.2426 85.3548 14.7031 89.0112 14.7031C93.878 14.7031 98.1266 17.3973 100.367 21.4257C102.324 20.5533 104.513 20.0657 106.779 20.0657C115.56 20.0657 122.667 27.2245 122.667 36.0255ZM64.7801 38.5657C64.7801 37.3853 63.7247 36.9492 62.7204 36.6157L62.5923 36.5642C61.845 36.3333 61.2017 36.1024 61.2017 35.6148V35.5892C61.2017 35.1787 61.5879 34.8709 62.1541 34.8709C62.7983 34.8709 63.5706 35.0761 64.0858 35.3583C64.0858 35.3583 64.2399 35.461 64.291 35.307C64.3169 35.23 64.575 34.5629 64.6001 34.4859C64.6261 34.409 64.575 34.3576 64.523 34.3062C63.9568 33.9727 63.1585 33.7162 62.3602 33.7162H62.2052C60.8156 33.7162 59.8623 34.5371 59.8623 35.7432V35.7689C59.8623 37.0261 60.9177 37.4367 61.9221 37.7189L62.0771 37.7702C62.7983 38.0012 63.4416 38.1808 63.4416 38.694V38.7196C63.4416 39.1815 63.0295 39.5407 62.3862 39.5407C62.1281 39.5407 61.3298 39.5407 60.4285 38.9761C60.3255 38.9248 60.2744 38.8735 60.1714 38.8222C60.1194 38.7966 60.0173 38.7451 59.9653 38.8992L59.6562 39.7202C59.6051 39.8486 59.6822 39.8743 59.6822 39.8743C59.8112 39.9769 59.9653 40.0538 60.0943 40.1309C60.8406 40.5157 61.5619 40.644 62.3082 40.644C63.8278 40.6953 64.7801 39.8743 64.7801 38.5657ZM71.0635 40.1309V36.2307C71.0635 35.3839 70.8323 34.7425 70.3942 34.3576C69.9561 33.9727 69.2868 33.7675 68.4374 33.7675C68.1283 33.7675 67.6132 33.8188 67.3041 33.8701C67.3041 33.8701 66.3767 34.0497 65.9906 34.3576C65.9906 34.3576 65.9135 34.409 65.9655 34.5371L66.2737 35.3583C66.2997 35.461 66.4027 35.4354 66.4027 35.4354C66.4027 35.4354 66.4287 35.4096 66.4798 35.4096C67.3041 34.9735 68.3344 34.9735 68.3344 34.9735C68.7976 34.9735 69.1578 35.0761 69.3898 35.2557C69.6219 35.4353 69.75 35.6919 69.75 36.2821V36.4616C69.3898 36.4103 69.0547 36.3847 69.0547 36.3847C68.8747 36.3847 68.6686 36.359 68.3855 36.359C68.0253 36.359 67.6642 36.4103 67.33 36.4873C66.9949 36.5642 66.6858 36.7183 66.4287 36.8978C66.1716 37.0774 65.9655 37.3084 65.8105 37.5906C65.6564 37.8728 65.5784 38.2064 65.5784 38.5657C65.5784 38.9505 65.6564 39.2584 65.7845 39.5407C65.9135 39.7972 66.0936 40.0282 66.3517 40.2078C66.5828 40.3873 66.8919 40.5157 67.227 40.5927C67.5612 40.6696 67.9483 40.7211 68.3595 40.7211C68.7976 40.7211 69.2357 40.6953 69.647 40.6183C70.0591 40.5414 70.5743 40.4387 70.7293 40.413C70.8574 40.3873 71.0375 40.3361 71.0375 40.3361C71.0635 40.2335 71.0635 40.1309 71.0635 40.1309ZM73.8185 31.3042C73.8185 31.2272 73.7675 31.1759 73.6904 31.1759H72.557C72.48 31.1759 72.428 31.2272 72.428 31.3042V40.3873C72.428 40.4644 72.48 40.5157 72.557 40.5157H73.6904C73.7675 40.5157 73.8185 40.4644 73.8185 40.3873V31.3042ZM80.7711 35.6406C80.6681 35.23 80.411 34.8194 80.2309 34.6399C79.9478 34.3319 79.6897 34.1267 79.4326 34.0241C79.0715 33.8701 78.6603 33.7675 78.2221 33.7675C77.681 33.7675 77.1918 33.8701 76.8056 34.0497C76.4195 34.2293 76.0853 34.4859 75.8273 34.7938C75.5701 35.1018 75.3641 35.4865 75.261 35.8971C75.132 36.3076 75.0809 36.7695 75.0809 37.257C75.0809 37.7445 75.158 38.2064 75.287 38.617C75.4151 39.0275 75.6212 39.3867 75.9043 39.6946C76.1883 40.0025 76.5485 40.2335 76.9857 40.413C77.4238 40.567 77.939 40.6696 78.5312 40.6696C79.7668 40.6696 80.411 40.3873 80.6941 40.2335C80.7461 40.2078 80.7971 40.1564 80.7201 40.0282L80.437 39.2584C80.385 39.1301 80.2819 39.1815 80.2819 39.1815C79.9728 39.2841 79.5356 39.4893 78.5312 39.4893C77.862 39.4893 77.3728 39.2841 77.0637 38.9761C76.7546 38.6683 76.5996 38.2064 76.5745 37.565H80.8491C80.8491 37.565 80.9521 37.565 80.9772 37.4622C80.9002 37.4367 81.0292 36.5899 80.7711 35.6406ZM86.8994 38.5913C86.8994 37.3853 85.844 36.9492 84.8396 36.6157L84.7115 36.5642C83.9643 36.3333 83.321 36.1024 83.321 35.6148V35.5892C83.321 35.1787 83.7072 34.8709 84.2734 34.8709C84.9176 34.8709 85.6899 35.0761 86.2051 35.3583C86.2051 35.3583 86.3592 35.461 86.4102 35.307C86.4362 35.23 86.6943 34.5629 86.7194 34.4859C86.7453 34.409 86.6943 34.3576 86.6423 34.3062C86.0761 33.9727 85.2778 33.7162 84.4795 33.7162H84.3245C82.9349 33.7162 81.9816 34.5371 81.9816 35.7432V35.7689C81.9816 37.0261 83.0379 37.4367 84.0413 37.7189L84.1964 37.7702C84.9176 38.0012 85.5609 38.1808 85.5609 38.694V38.7196C85.5609 39.1815 85.1488 39.5407 84.5055 39.5407C84.2474 39.5407 83.4491 39.5407 82.5478 38.9761C82.4448 38.9248 82.3677 38.8735 82.2907 38.8222C82.2647 38.7966 82.1366 38.7451 82.0846 38.8992L81.7755 39.7202C81.7244 39.8486 81.8015 39.8743 81.8015 39.8743C81.9305 39.9769 82.0846 40.0538 82.2136 40.1309C82.9599 40.5157 83.6812 40.644 84.4275 40.644C85.947 40.6953 86.8994 39.8743 86.8994 38.5913ZM92.0503 34.0497C92.0503 33.9727 92.0243 33.9214 91.9213 33.9214H90.5567C90.5567 33.8958 90.6338 33.4083 90.7879 32.972C90.8659 32.7668 90.9689 32.6129 91.097 32.5103C91.2 32.4076 91.3291 32.3306 91.4581 32.2793C91.5862 32.2279 91.7412 32.2022 91.9213 32.2022C92.0503 32.2022 92.1784 32.2279 92.2814 32.2279C92.4105 32.2536 92.4615 32.2793 92.5135 32.2793C92.6425 32.3306 92.6676 32.2793 92.6936 32.2022L93.0287 31.3042C93.0547 31.2016 92.9767 31.1759 92.9516 31.1504C92.8226 31.099 92.6936 31.0733 92.5395 31.0476C92.3845 31.022 92.1784 30.9964 91.9473 30.9964C91.174 30.9964 90.5567 31.2272 90.1446 31.6378C89.7325 32.074 89.4233 32.7155 89.2943 33.5622L89.2433 33.8444H88.2649C88.2649 33.8444 88.1359 33.8444 88.1099 33.9727L87.9558 34.8709C87.9558 34.9478 87.9818 34.9991 88.0848 34.9991H89.0372L88.0848 40.3361C88.0068 40.7723 87.9298 41.1059 87.8268 41.3881C87.7237 41.6447 87.6467 41.8499 87.5177 42.004C87.4146 42.1321 87.3116 42.2349 87.1315 42.3118C86.9774 42.363 86.8224 42.3888 86.6163 42.3888C86.5133 42.3888 86.3852 42.363 86.2821 42.363C86.1791 42.3375 86.1271 42.3118 86.0501 42.2862C86.0501 42.2862 85.947 42.2349 85.896 42.363C85.87 42.4657 85.612 43.1329 85.5869 43.2355C85.5609 43.3124 85.5869 43.3895 85.6639 43.415C85.793 43.4665 85.896 43.4921 86.0501 43.5178C86.2821 43.5691 86.4882 43.5691 86.6683 43.5691C87.0545 43.5691 87.4146 43.5178 87.7237 43.415C88.0328 43.3124 88.2909 43.1329 88.522 42.8763C88.7801 42.594 88.9342 42.3118 89.0632 41.9269C89.2173 41.542 89.3463 41.0546 89.4493 40.4899L90.4017 35.0761H91.8182C91.8182 35.0761 91.9473 35.0761 91.9723 34.9478L92.0503 34.0497ZM98.3327 37.2313C98.3327 36.7439 98.2817 36.3076 98.1526 35.8715C98.0236 35.461 97.8435 35.0761 97.5864 34.7682C97.3283 34.4603 96.9942 34.2036 96.608 34.0241C96.2219 33.8444 95.7577 33.7418 95.2685 33.7418C94.7534 33.7418 94.2902 33.8444 93.904 34.0241C93.5179 34.2036 93.1828 34.4603 92.9256 34.7682C92.6676 35.0761 92.4875 35.4353 92.3585 35.8715C92.2304 36.2821 92.1784 36.7439 92.1784 37.2313C92.1784 37.7189 92.2304 38.1808 92.3585 38.5913C92.4875 39.0018 92.6676 39.3867 92.9256 39.6946C93.1828 40.0025 93.5179 40.2591 93.904 40.413C94.2902 40.5927 94.7534 40.6696 95.2685 40.6696C95.7837 40.6696 96.2219 40.5927 96.608 40.413C96.9942 40.2335 97.3283 40.0025 97.5864 39.6946C97.8435 39.3867 98.0236 39.0275 98.1526 38.5913C98.2817 38.1551 98.3327 37.7189 98.3327 37.2313ZM103.355 33.9727C103.277 33.9471 102.916 33.8701 102.633 33.8444C102.092 33.8188 101.809 33.8958 101.526 34.0241C101.269 34.1523 100.96 34.3319 100.805 34.5629V34.0497C100.805 33.9727 100.754 33.9214 100.677 33.9214H99.5951C99.5171 33.9214 99.4661 33.9727 99.4661 34.0497V40.3873C99.4661 40.4644 99.5171 40.5157 99.5951 40.5157H100.728C100.805 40.5157 100.857 40.4644 100.857 40.3873V37.2313C100.857 36.7951 100.908 36.3847 101.011 36.1024C101.114 35.8458 101.217 35.6406 101.397 35.4865C101.552 35.3326 101.732 35.23 101.912 35.1787C102.118 35.1273 102.324 35.1018 102.478 35.1018C102.71 35.1018 102.942 35.153 102.942 35.153C103.019 35.153 103.071 35.1018 103.096 35.0247C103.174 34.8194 103.38 34.255 103.406 34.1267C103.458 34.0497 103.38 33.9984 103.355 33.9727ZM108.814 40.1821L108.504 39.3353C108.452 39.207 108.349 39.2584 108.349 39.2584C108.169 39.3354 107.963 39.3867 107.757 39.4124C107.551 39.438 107.32 39.4637 107.062 39.4637C106.445 39.4637 105.956 39.2841 105.62 38.9248C105.285 38.5657 105.079 38.0012 105.079 37.2058C105.079 36.4873 105.259 35.9484 105.568 35.538C105.878 35.1273 106.342 34.9221 106.959 34.9221C107.474 34.9221 107.886 34.9735 108.298 35.1018C108.298 35.1018 108.401 35.153 108.452 35.0247C108.556 34.7168 108.633 34.5116 108.762 34.1781C108.788 34.0754 108.711 34.0497 108.685 34.0241C108.53 33.9471 108.143 33.8444 107.834 33.8188C107.551 33.7674 107.243 33.7675 106.882 33.7675C106.342 33.7675 105.878 33.8701 105.465 34.0241C105.054 34.2036 104.719 34.4603 104.436 34.7682C104.178 35.0761 103.947 35.4353 103.818 35.8715C103.689 36.2821 103.612 36.7439 103.612 37.2313C103.612 38.2834 103.895 39.1044 104.461 39.7202C105.028 40.3361 105.852 40.644 106.959 40.644C107.603 40.644 108.272 40.5157 108.736 40.3361C108.762 40.3361 108.865 40.3104 108.814 40.1821ZM114.968 35.6406C114.865 35.23 114.607 34.8194 114.427 34.6399C114.144 34.3319 113.886 34.1267 113.628 34.0241C113.268 33.8701 112.856 33.7675 112.393 33.7675C111.852 33.7675 111.389 33.8701 110.976 34.0497C110.59 34.2293 110.255 34.4859 109.998 34.7938C109.74 35.1018 109.534 35.4865 109.431 35.8971C109.303 36.3076 109.251 36.7695 109.251 37.257C109.251 37.7445 109.329 38.2064 109.431 38.617C109.56 39.0275 109.766 39.3867 110.049 39.6946C110.332 40.0025 110.693 40.2335 111.13 40.413C111.569 40.567 112.084 40.6696 112.676 40.6696C113.912 40.6696 114.556 40.3873 114.813 40.2335C114.865 40.2078 114.916 40.1564 114.839 40.0282L114.556 39.2584C114.504 39.1301 114.401 39.1815 114.401 39.1815C114.092 39.2841 113.654 39.4893 112.65 39.4893C111.981 39.4893 111.492 39.2841 111.182 38.9761C110.873 38.6683 110.718 38.2064 110.693 37.565H114.968C114.968 37.565 115.071 37.565 115.096 37.4622C115.096 37.4367 115.225 36.5899 114.968 35.6406ZM112.29 34.9221C111.723 34.9221 111.337 35.153 111.079 35.538C110.899 35.7945 110.796 36.1281 110.744 36.5386H113.783C113.757 36.1538 113.68 35.7945 113.499 35.538C113.216 35.1273 112.83 34.9221 112.29 34.9221Z" fill="#0D9DDA"/>
<path d="M194.821 31.9729L194.125 32.9478C193.403 32.4347 192.605 32.1781 191.757 32.1781C191.163 32.1781 190.7 32.2807 190.365 32.5116C190.031 32.7426 189.877 33.0761 189.877 33.4867C189.877 33.7946 189.954 34.0512 190.082 34.2564C190.21 34.4616 190.443 34.6157 190.777 34.7696C191.112 34.898 191.575 35.0518 192.193 35.2058C193.172 35.4367 193.867 35.796 194.331 36.2321C194.795 36.694 195.026 37.2841 195.026 38.0026C195.026 38.9263 194.691 39.6447 193.995 40.158C193.3 40.6711 192.451 40.9277 191.421 40.9277C190.056 40.9277 188.924 40.5685 187.997 39.8243L188.717 38.8493C189.129 39.1315 189.541 39.3369 189.954 39.4908C190.365 39.6191 190.828 39.696 191.343 39.696C191.988 39.696 192.477 39.5679 192.837 39.2855C193.198 39.0032 193.377 38.6184 193.377 38.1309C193.377 37.7973 193.3 37.5408 193.172 37.3355C193.043 37.1302 192.811 36.9506 192.503 36.8223C192.193 36.694 191.705 36.5401 191.086 36.3861C190.108 36.1295 189.387 35.796 188.949 35.3854C188.51 34.9749 188.279 34.3848 188.279 33.6406C188.279 32.8452 188.589 32.2038 189.207 31.7162C189.825 31.2287 190.648 30.9978 191.679 30.9978C192.915 30.9721 193.944 31.3056 194.821 31.9729ZM180.245 35.2828C180.271 34.3848 180.553 33.6406 181.018 33.0504C181.507 32.4603 182.177 32.1781 183.051 32.1781C183.928 32.1781 184.572 32.4603 185.035 33.0249C185.498 33.5893 185.73 34.359 185.756 35.2828H180.245ZM187.275 36.5144C187.3 36.3605 187.301 36.1552 187.301 35.8473C187.301 34.3848 186.941 33.2044 186.22 32.3064C185.498 31.4083 184.443 30.9721 183.078 30.9721C182.151 30.9721 181.353 31.1774 180.683 31.5879C180.014 31.9984 179.525 32.5886 179.164 33.3327C178.83 34.0768 178.649 34.9235 178.649 35.8986C178.649 37.4125 179.061 38.644 179.859 39.5421C180.683 40.4658 181.79 40.902 183.258 40.902C183.98 40.902 184.649 40.7994 185.266 40.5941C185.858 40.3889 186.426 40.1066 186.967 39.7217L186.271 38.6954C185.807 39.0032 185.343 39.2341 184.907 39.3882C184.443 39.5421 183.954 39.6191 183.361 39.6191C182.382 39.6191 181.662 39.3369 181.121 38.7723C180.606 38.2079 180.297 37.4381 180.245 36.4631H187.275V36.5144ZM173.653 40.6711H175.224V35.5907C175.224 34.6157 175.456 33.8459 175.946 33.2301C176.435 32.6142 177.13 32.3321 178.03 32.3321C178.289 32.3321 178.495 32.3321 178.597 32.3577L178.7 30.9978C178.443 30.9721 178.263 30.9464 178.16 30.9464C176.717 30.9464 175.74 31.5365 175.173 32.7169C175.147 32.1267 175.096 31.6392 175.043 31.2287H173.525C173.602 31.9472 173.653 32.64 173.653 33.3327V40.6711ZM162.813 37.0019C162.813 38.1566 163.122 39.106 163.714 39.8243C164.306 40.5428 165.208 40.902 166.366 40.902C167.86 40.902 168.967 40.3118 169.637 39.1315H169.662C169.688 39.7473 169.739 40.2349 169.791 40.6198H171.31C171.233 39.9014 171.181 39.2086 171.181 38.5158V31.2287H169.611V36.2578C169.611 37.2329 169.353 38.0283 168.838 38.6696C168.324 39.3112 167.628 39.6447 166.752 39.6447C165.955 39.6447 165.362 39.3882 165.002 38.8493C164.615 38.3361 164.435 37.6177 164.435 36.771V31.2287H162.813V37.0019ZM158.976 28.355L157.38 28.9195V31.2287L155.731 31.4083V32.4347H157.405V38.2592C157.405 39.106 157.637 39.7731 158.126 40.2349C158.615 40.6967 159.259 40.9277 160.083 40.9277C160.65 40.9277 161.139 40.8508 161.551 40.6967L161.319 39.5421C161.036 39.619 160.727 39.6705 160.392 39.6705C159.465 39.6705 159.001 39.1572 159.001 38.1566V32.4347H161.499V31.2287H159.001V28.355H158.976ZM146.462 40.6711H148.032V35.2571C148.032 34.4104 148.289 33.6919 148.804 33.1275C149.32 32.563 150.015 32.2807 150.864 32.2807C151.689 32.2807 152.307 32.5374 152.667 33.0249C153.028 33.5123 153.233 34.1281 153.233 34.898V40.6711H154.805V34.5642C154.805 33.538 154.521 32.6912 153.928 31.9984C153.362 31.3056 152.461 30.9721 151.276 30.9721C150.504 30.9721 149.835 31.1261 149.294 31.4083C148.727 31.6906 148.289 32.0755 147.98 32.563H147.955C147.929 31.9984 147.877 31.5623 147.826 31.2287H146.333C146.41 31.9472 146.462 32.64 146.462 33.3327V40.6711ZM137.603 35.2828C137.629 34.3848 137.912 33.6406 138.376 33.0504C138.865 32.4603 139.534 32.1781 140.41 32.1781C141.286 32.1781 141.929 32.4603 142.393 33.0249C142.856 33.5893 143.088 34.359 143.113 35.2828H137.603ZM144.659 36.5144C144.685 36.3605 144.685 36.1552 144.685 35.8473C144.685 34.3848 144.324 33.2044 143.603 32.3064C142.882 31.4083 141.826 30.9721 140.461 30.9721C139.534 30.9721 138.737 31.1774 138.066 31.5879C137.397 31.9984 136.908 32.5886 136.548 33.3327C136.213 34.0768 136.033 34.9235 136.033 35.8986C136.033 37.4125 136.445 38.644 137.243 39.5421C138.066 40.4658 139.174 40.902 140.641 40.902C141.363 40.902 142.032 40.7994 142.65 40.5941C143.242 40.3889 143.809 40.1066 144.35 39.7217L143.655 38.6954C143.191 39.0032 142.727 39.2341 142.29 39.3882C141.826 39.5421 141.337 39.6191 140.744 39.6191C139.766 39.6191 139.045 39.3369 138.505 38.7723C137.989 38.2079 137.68 37.4381 137.629 36.4631H144.659V36.5144ZM135.853 31.2287H134.23L131.526 39.0803H131.475L128.668 31.2287H126.968L130.574 40.6711H132.35L135.853 31.2287Z" fill="#032D60"/>
</g>
</svg>
