<svg width="205" height="64" viewBox="0 0 205 64" fill="none" xmlns="http://www.w3.org/2000/svg">
<mask id="mask0_991_358" style="mask-type:luminance" maskUnits="userSpaceOnUse" x="40" y="17" width="126" height="30">
<path d="M165.374 17.625H40.815V46.9927H165.374V17.625Z" fill="white"/>
</mask>
<g mask="url(#mask0_991_358)">
<mask id="mask1_991_358" style="mask-type:luminance" maskUnits="userSpaceOnUse" x="41" y="17" width="124" height="31">
<path d="M164.59 17.625H41.51V47.0138H164.59V17.625Z" fill="white"/>
</mask>
<g mask="url(#mask1_991_358)">
<path d="M70.371 21.9379L70.221 22.0043C69.311 21.1656 68.248 20.5046 67.087 20.0565C64.554 19.1051 61.757 19.0839 59.209 19.9969C58.074 20.4212 57.045 21.0834 56.195 21.9379C55.325 22.8289 54.656 23.891 54.231 25.0546C53.743 26.4025 53.506 27.826 53.53 29.2569C53.516 30.8927 53.741 32.522 54.197 34.0948C54.599 35.5056 55.274 36.8262 56.186 37.9836C57.071 39.0824 58.2 39.9662 59.486 40.567C60.806 41.1941 62.346 41.5077 64.106 41.5077C64.745 41.5068 65.383 41.4383 66.007 41.3032C66.637 41.1697 67.251 40.968 67.836 40.7016C68.42 40.4382 68.974 40.1149 69.49 39.7371C70.008 39.3583 70.482 38.9233 70.902 38.4403L71.087 38.5596L69.753 42.024C68.859 42.367 67.933 42.6194 66.987 42.7772C65.981 42.9524 64.96 43.0401 63.938 43.0396C62.014 43.0621 60.101 42.7554 58.283 42.1331C56.653 41.5767 55.153 40.7041 53.872 39.5667C52.633 38.4521 51.651 37.089 50.992 35.5689C50.291 33.9317 49.941 32.1689 49.966 30.3919C49.964 29.3231 50.101 28.2585 50.373 27.224C50.645 26.1901 51.046 25.1939 51.57 24.2588C52.095 23.3162 52.747 22.4473 53.507 21.6754C54.287 20.88 55.173 20.1921 56.139 19.6305C57.16 19.0402 58.255 18.5874 59.398 18.2843C60.653 17.9536 61.949 17.7914 63.249 17.802C65.287 17.783 67.312 18.1211 69.231 18.8006L70.371 21.9379Z" fill="black"/>
<path d="M85.115 17.8035C86.878 17.7853 88.627 18.0982 90.271 18.7254C91.796 19.3096 93.185 20.1918 94.355 21.319C95.521 22.458 96.437 23.821 97.046 25.3236C97.708 26.9678 98.036 28.7236 98.014 30.4922C98.015 31.5584 97.892 32.6213 97.648 33.66C97.409 34.6817 97.047 35.6715 96.569 36.6081C96.098 37.5317 95.512 38.3938 94.823 39.1745C94.135 39.9577 93.34 40.6425 92.459 41.2092C91.548 41.7896 90.559 42.24 89.521 42.5469C88.399 42.8759 87.234 43.0384 86.064 43.0291C84.304 43.0471 82.555 42.7396 80.91 42.1226C79.38 41.5554 77.986 40.6793 76.82 39.5504C75.653 38.4215 74.738 37.0647 74.134 35.5669C73.471 33.9205 73.142 32.1614 73.166 30.3899C73.165 29.3236 73.288 28.2606 73.533 27.222C73.773 26.1955 74.135 25.2003 74.611 24.2569C75.079 23.3278 75.663 22.4599 76.348 21.6735C77.746 20.0643 79.586 18.8873 81.646 18.284C82.772 17.9553 83.941 17.7934 85.115 17.8035ZM86.067 41.5074C87.235 41.5203 88.391 41.2879 89.461 40.8258C90.482 40.3756 91.387 39.704 92.108 38.8609C92.887 37.9338 93.474 36.8658 93.837 35.7169C94.267 34.3543 94.475 32.933 94.454 31.5061C94.467 29.8756 94.269 28.2501 93.861 26.6699C93.513 25.2882 92.916 23.9796 92.098 22.8067C91.344 21.7402 90.344 20.8644 89.182 20.2506C88.019 19.6348 86.663 19.327 85.113 19.327C83.948 19.3128 82.792 19.541 81.722 19.9966C80.702 20.4385 79.797 21.1021 79.074 21.9376C78.295 22.854 77.708 23.9132 77.346 25.0544C76.915 26.414 76.707 27.8325 76.729 29.2567C76.716 30.8871 76.912 32.5126 77.313 34.0946C77.655 35.4846 78.249 36.8021 79.067 37.9833C79.824 39.0579 80.826 39.9426 81.992 40.5667C83.16 41.1972 84.519 41.5125 86.067 41.5125V41.5074Z" fill="black"/>
<path d="M41.51 42.9624C41.594 42.6617 41.66 42.3561 41.707 42.0473C41.766 41.6838 41.819 41.2293 41.868 40.6841C41.916 40.1387 41.952 39.4968 41.975 38.7584C41.999 38.0132 42.011 37.1424 42.011 36.146V24.6929C42.011 23.6965 41.999 22.8257 41.975 22.0805C41.951 21.3352 41.915 20.6899 41.868 20.1446C41.819 19.5993 41.766 19.1449 41.707 18.7814C41.66 18.4726 41.594 18.167 41.51 17.8663V17.7964H45.776V17.8663C45.705 18.1116 45.637 18.4167 45.57 18.7814C45.503 19.146 45.449 19.6005 45.409 20.1446C45.368 20.6899 45.332 21.3352 45.302 22.0805C45.272 22.8257 45.258 23.6965 45.259 24.6929V36.146C45.259 37.1435 45.273 38.0143 45.302 38.7584C45.331 39.5025 45.366 40.1444 45.409 40.6841C45.451 41.2237 45.504 41.6781 45.57 42.0473C45.636 42.4165 45.704 42.7216 45.776 42.9624V43.0323H41.51V42.9624Z" fill="black"/>
<path d="M130.208 42.9392C130.291 42.638 130.357 42.3325 130.406 42.0241C130.464 41.6606 130.517 41.2061 130.565 40.6608C130.612 40.1155 130.647 39.4736 130.671 38.7352C130.696 37.9911 130.708 37.1203 130.708 36.1228V24.6696C130.708 23.6722 130.696 22.8008 130.671 22.0555C130.647 21.3103 130.612 20.6656 130.565 20.1214C130.519 19.5761 130.466 19.1217 130.406 18.7581C130.357 18.4497 130.291 18.1442 130.208 17.843V17.7715H134.476V17.843C134.392 18.1444 134.324 18.4498 134.272 18.7581C134.206 19.1217 134.153 19.5761 134.111 20.1214C134.07 20.6667 134.034 21.3114 134.004 22.0555C133.975 22.8019 133.96 23.6733 133.959 24.6696V36.1228C133.959 37.1192 133.974 37.9899 134.004 38.7352C134.034 39.4804 134.07 40.1223 134.111 40.6608C134.153 41.2016 134.206 41.656 134.272 42.0241C134.324 42.3324 134.392 42.6378 134.476 42.9392V43.0091H130.208V42.9392Z" fill="black"/>
<path d="M103.347 17.8037L121.668 37.0207V24.6763C121.668 23.6823 121.656 22.8143 121.632 22.0725C121.609 21.3312 121.573 20.687 121.527 20.1434C121.48 19.5998 121.421 19.1482 121.354 18.7801C121.286 18.4121 121.22 18.1138 121.149 17.8685V17.7986H124.314V17.8685C124.231 18.1683 124.166 18.4728 124.119 18.7801C124.06 19.1431 124.007 19.5947 123.958 20.1434C123.91 20.6921 123.875 21.3363 123.853 22.0725C123.83 22.8086 123.816 23.6828 123.816 24.6763V43.2986H123.194L104.873 24.0986V36.092C104.873 37.0849 104.885 37.9529 104.909 38.6958C104.933 39.4388 104.968 40.0778 105.016 40.6164C105.065 41.1548 105.117 41.603 105.175 41.966C105.224 42.3008 105.29 42.633 105.372 42.9612V43.0311H102.209V42.9612C102.28 42.7158 102.347 42.329 102.413 41.966C102.479 41.603 102.536 41.1532 102.586 40.6164C102.636 40.0796 102.669 39.4388 102.693 38.6958C102.718 37.9529 102.728 37.0855 102.728 36.092V24.6746C102.728 23.6805 102.716 22.8126 102.693 22.0707C102.669 21.3295 102.633 20.6853 102.586 20.1417C102.539 19.5981 102.482 19.1465 102.413 18.7784C102.344 18.4103 102.28 18.1121 102.209 17.8667V17.7969L103.347 17.8037Z" fill="black"/>
<path d="M163.608 25.251C162.997 23.7271 162.07 22.3453 160.888 21.1936C159.705 20.0418 158.293 19.1452 156.74 18.5608C155.074 17.9247 153.301 17.6072 151.514 17.6252C150.325 17.6157 149.14 17.7805 147.999 18.1143C145.911 18.7266 144.046 19.9194 142.629 21.5498C141.935 22.3476 141.344 23.2274 140.871 24.169C140.388 25.1252 140.022 26.1341 139.778 27.175C139.53 28.2281 139.404 29.3059 139.405 30.3872C139.381 32.1833 139.715 33.9667 140.389 35.6358C141 37.1544 141.928 38.5302 143.11 39.6747C144.293 40.8192 145.706 41.7072 147.257 42.2817C148.617 42.7944 150.049 43.094 151.503 43.1695C151.821 43.1895 152.131 43.273 152.415 43.415C152.879 43.6421 153.33 43.8924 153.768 44.1648C155.54 45.3576 157.806 46.3664 159.863 47.0106L160.482 46.7362C160.359 46.6612 160.257 46.5965 160.153 46.5351C158.913 45.8325 157.771 44.9732 156.757 43.979C156.378 43.6297 156.074 43.2083 155.863 42.7401C155.905 42.7282 155.948 42.718 155.99 42.7044C157.041 42.3912 158.042 41.9322 158.962 41.3411C159.855 40.7675 160.662 40.0735 161.36 39.2791C162.057 38.4873 162.651 37.6133 163.13 36.677C163.614 35.7272 163.98 34.7237 164.222 33.688C164.471 32.6349 164.596 31.5571 164.596 30.4758C164.615 28.6875 164.279 26.9127 163.608 25.251ZM160.357 35.7909C159.989 36.9557 159.393 38.0382 158.603 38.9775C157.872 39.8325 156.954 40.5135 155.919 40.9696C154.834 41.4352 153.662 41.6676 152.479 41.6512C150.91 41.6512 149.532 41.3337 148.346 40.6987C147.164 40.0659 146.149 39.1689 145.382 38.0795C144.551 36.8825 143.949 35.5462 143.604 34.1362C143.198 32.5325 142.998 30.8847 143.011 29.2318C142.989 27.788 143.2 26.35 143.636 24.9716C144.004 23.8141 144.6 22.7397 145.391 21.8105C146.124 20.9645 147.042 20.2924 148.075 19.844C149.161 19.3815 150.332 19.1492 151.514 19.1623C153.084 19.1623 154.459 19.4742 155.639 20.0979C156.817 20.7212 157.83 21.6098 158.594 22.6915C159.424 23.8815 160.03 25.2092 160.382 26.6109C160.795 28.2135 160.997 29.8618 160.983 31.5153C161.005 32.9641 160.794 34.4073 160.357 35.7909Z" fill="black"/>
</g>
</g>
</svg>
