<svg width="243" height="77" viewBox="0 0 243 77" fill="none" xmlns="http://www.w3.org/2000/svg">
<g clip-path="url(#clip0_991_231)">
<path d="M180.756 60.1622L181.541 62.7557H170.118L178.073 44.0578H173.82C173.339 44.0564 172.952 44.0564 172.685 44.0578H172.415C172.367 44.0578 172.322 44.0592 172.274 44.0637C171.773 44.1123 171.539 44.3175 171.241 44.5954L171.171 44.3602L170.403 41.8284L181.542 41.8198L173.588 60.5178H178.123C178.721 60.5191 179.172 60.5191 179.431 60.5178C179.566 60.5164 179.646 60.515 179.669 60.5119C180.171 60.4633 180.404 60.258 180.702 59.9801L180.757 60.1622H180.756Z" fill="black"/>
<path d="M112.097 41.5532C106.178 41.5532 101.363 46.3688 101.363 52.2877C101.363 58.2066 106.178 63.0222 112.097 63.0222C118.016 63.0222 122.832 58.2066 122.832 52.2877C122.832 46.3688 118.016 41.5532 112.097 41.5532ZM112.097 60.7338C107.44 60.7338 103.651 56.9448 103.651 52.2877C103.651 47.6306 107.44 43.8416 112.097 43.8416C116.754 43.8416 120.543 47.6306 120.543 52.2877C120.543 56.9448 116.754 60.7338 112.097 60.7338Z" fill="black"/>
<path d="M76.0412 41.6929C70.2762 41.6929 65.5859 46.3831 65.5859 52.1481C65.5859 57.9131 70.2762 62.6034 76.0412 62.6034C81.8061 62.6034 86.4964 57.9131 86.4964 52.1481C86.4964 46.3831 81.8061 41.6929 76.0412 41.6929ZM76.0412 60.3749C71.5048 60.3749 67.8148 56.6844 67.8148 52.1481C67.8148 47.6118 71.5053 43.9213 76.0412 43.9213C80.577 43.9213 84.268 47.6118 84.268 52.1481C84.268 56.6844 80.5775 60.3749 76.0412 60.3749Z" fill="black"/>
<path d="M150.169 41.8252C149.909 42.0686 149.614 42.4413 149.454 42.781C149.428 42.8341 149.407 42.8872 149.39 42.9371C149.387 42.9471 149.383 42.9571 149.378 42.9671C149.351 43.0402 149.327 43.1147 149.304 43.1891C149.304 43.1891 149.274 43.2895 149.217 43.4743C149.18 43.596 149.131 43.7567 149.071 43.9515L143.86 61.1338C143.844 61.181 143.83 61.2283 143.818 61.2741C143.628 61.9774 143.849 62.4791 144.017 62.7511H140.442C140.61 62.4787 140.832 61.9774 140.643 61.2723C140.632 61.2264 140.617 61.1806 140.601 61.1334L136.066 46.179L131.53 61.1334L131.503 61.2224C131.503 61.2224 131.501 61.2251 131.501 61.2264C131.289 61.9556 131.516 62.4728 131.688 62.7511H128.113C128.28 62.4787 128.502 61.9774 128.314 61.2723C128.302 61.2264 128.288 61.1806 128.272 61.1334L122.83 43.1891C122.797 43.0829 122.762 42.9785 122.72 42.8754C122.718 42.8727 122.717 42.8681 122.716 42.8654C122.548 42.5044 122.23 42.0704 121.967 41.8252H125.296C125.114 42.1044 124.857 42.5117 125.041 43.1851C125.049 43.2096 125.056 43.2323 125.063 43.2568L127.479 51.2229L129.899 59.1964L129.901 59.185L129.905 59.1964L132.635 50.1955V50.1941L134.629 43.6205C134.742 43.2395 134.809 43.0071 134.815 42.9671C134.911 42.4727 134.781 42.1907 134.599 41.8252H136.957V41.8266L142.227 59.1964L142.23 59.185L142.234 59.1964L144.963 50.1955V50.1941L146.958 43.6205C147.07 43.2395 147.137 43.0071 147.145 42.9671C147.241 42.4727 147.111 42.1907 146.929 41.8252H150.169Z" fill="black"/>
<path d="M97.031 62.7635C97.074 62.5229 97.128 62.2046 96.873 61.726C96.833 61.6515 96.786 61.5725 96.73 61.4894C96.708 61.4581 96.685 61.4263 96.662 61.395L92.373 55.694L90.725 53.516H92.866C95.515 53.516 97.753 51.3479 97.709 48.6991C97.664 46.1255 95.558 44.0451 92.973 44.0451L90.725 44.0488V61.5217C90.725 61.5462 90.725 61.5821 90.727 61.6248C90.727 61.6493 90.728 61.6747 90.729 61.7006C90.754 62.0688 90.95 62.4956 91.152 62.7667H88.09C88.208 62.6105 88.322 62.4025 88.402 62.1837C88.422 62.1319 88.44 62.0806 88.454 62.0275C88.499 61.8945 88.51 61.8068 88.515 61.7051V61.6892C88.517 61.6406 88.517 61.5875 88.519 61.5244V42.984C88.519 42.9441 88.516 42.9023 88.511 42.8592C88.51 42.8446 88.509 42.8292 88.507 42.8133C88.491 42.6671 88.459 42.5241 88.41 42.3851L88.218 41.8421H90.725V41.8435L92.837 41.8398C96.493 41.8398 99.618 44.6154 99.893 48.2604C100.143 51.5414 98.016 54.5203 94.944 55.4329L100.449 62.763L97.031 62.7635Z" fill="black"/>
<path d="M154.423 61.6516C154.437 62.0271 154.639 62.4711 154.847 62.749H151.789C151.997 62.4711 152.199 62.0271 152.213 61.6516V42.9251C152.199 42.5496 151.997 42.1069 151.789 41.8276H154.847C154.639 42.1069 154.437 42.5496 154.423 42.9251V61.6516Z" fill="black"/>
<path d="M61.3715 61.5052V55.5863H51.64V61.5052L51.6459 61.6083C51.6459 61.6355 51.6472 61.6628 51.6504 61.6914C51.6758 62.0582 51.8697 62.481 52.0718 62.7502H49.0056C49.1246 62.5927 49.2404 62.382 49.3194 62.16L49.3466 62.0755C49.4038 61.8921 49.4338 61.7 49.4338 61.5079V42.9676C49.4338 42.9272 49.4311 42.8858 49.4265 42.8427C49.4252 42.8286 49.4238 42.8127 49.422 42.7968C49.3734 42.4513 49.1927 42.0731 49.0079 41.8252H52.0654C51.8792 42.0731 51.6985 42.454 51.6513 42.7996C51.65 42.8141 51.6486 42.8286 51.6468 42.8413C51.6422 42.8845 51.6395 42.9258 51.6395 42.9676V53.4546H61.371V42.9676C61.371 42.9258 61.3683 42.8845 61.3637 42.8413C61.3619 42.8286 61.3606 42.8141 61.3592 42.7996C61.312 42.4545 61.1313 42.0731 60.9451 41.8252H64.0026C63.8178 42.0731 63.6371 42.4513 63.5885 42.7968C63.5867 42.8127 63.5854 42.8286 63.584 42.8427C63.5795 42.8858 63.5767 42.9272 63.5767 42.9676V61.5079C63.5767 61.7 63.6067 61.8916 63.6639 62.0755L63.6912 62.16C63.7702 62.382 63.8864 62.5927 64.0049 62.7502H60.9388C61.1408 62.481 61.3342 62.0578 61.3601 61.6914C61.3633 61.6628 61.3646 61.6355 61.3646 61.6083L61.3715 61.5052Z" fill="black"/>
<path d="M168.697 41.8198V44.4705C168.443 44.2803 168.076 44.1046 167.711 44.0523C167.698 44.0505 167.685 44.0487 167.672 44.0474C167.637 44.0437 167.603 44.0405 167.569 44.0387C167.567 44.0387 167.564 44.0387 167.562 44.0383C167.527 44.0365 167.492 44.0355 167.458 44.0355H163.79V61.6465C163.804 62.0225 164.005 62.4683 164.215 62.7476H161.154C161.364 62.4683 161.565 62.0225 161.579 61.6465V44.0355H157.911C157.876 44.0355 157.841 44.0365 157.807 44.0383C157.805 44.0383 157.802 44.0387 157.8 44.0387C157.765 44.0405 157.731 44.0437 157.697 44.0474C157.684 44.0487 157.671 44.0505 157.658 44.0523C157.293 44.1046 156.925 44.2803 156.672 44.4705V41.8198H168.697Z" fill="black"/>
<path d="M64.6009 35.7626C64.3317 35.512 64.0034 35.062 63.8399 34.6965C63.8386 34.6924 63.8372 34.6892 63.8354 34.6879C63.8127 34.6348 63.7941 34.5848 63.7782 34.5358C63.7596 34.4813 63.741 34.4254 63.7237 34.3696L57.8007 14.8408H54.9693C55.1514 15.2063 55.2817 15.4887 55.1854 15.9827C55.1096 16.3741 49.6003 34.3982 49.6003 34.3982C49.5776 34.4727 49.553 34.5471 49.5258 34.6207C49.5217 34.6307 49.5172 34.6407 49.5145 34.6507C49.4972 34.7006 49.4759 34.7537 49.45 34.8068C49.2911 35.1465 48.9955 35.5188 48.7349 35.7626H52.0662C51.8859 35.4834 51.6267 35.0765 51.811 34.4027C51.8183 34.3787 51.8255 34.3555 51.8323 34.331L53.5677 28.6101L59.7631 28.6114L61.498 34.331C61.5053 34.3555 61.5125 34.3782 61.5193 34.4027C61.7041 35.0761 61.4462 35.4834 61.2642 35.7626H64.6009ZM54.2142 26.4811L54.8953 24.2399V24.2372L54.8967 24.2327V24.2308L56.6661 18.3951L59.1188 26.4802L54.2142 26.4811Z" fill="black"/>
<path d="M117.181 17.0485V24.1974H124.146C124.527 24.1915 124.987 23.9853 125.272 23.7719V26.8218C124.987 26.6084 124.527 26.4018 124.146 26.3964H117.181V33.5542H125.505C125.889 33.5542 126.358 33.3463 126.647 33.1288V35.7596H114.55C114.768 35.4686 114.975 35.0017 114.975 34.6176L114.977 34.6839V16.0519L114.975 15.9856C114.975 15.6014 114.768 15.1348 114.55 14.8438H126.647V17.4744C126.358 17.2564 125.889 17.049 125.505 17.049L117.181 17.0485Z" fill="black"/>
<path d="M174.335 17.0485V24.1974H181.3C181.681 24.1915 182.141 23.9853 182.426 23.7719V26.8218C182.141 26.6084 181.681 26.4018 181.3 26.3964H174.335V33.5542H182.659C183.043 33.5542 183.512 33.3463 183.801 33.1288V35.7596H171.704C171.922 35.4686 172.13 35.0017 172.13 34.6176L172.131 34.6839V16.0519L172.13 15.9856C172.13 15.6014 171.922 15.1348 171.704 14.8438H183.801V17.4744C183.512 17.2564 183.043 17.049 182.659 17.049L174.335 17.0485Z" fill="black"/>
<path d="M131.343 17.0485V24.1974H138.308C138.689 24.1915 139.149 23.9853 139.434 23.7719V26.8218C139.149 26.6084 138.689 26.4018 138.308 26.3964H131.343V33.5542H139.667C140.051 33.5542 140.52 33.3463 140.809 33.1288V35.7596H128.712C128.93 35.4686 129.138 35.0017 129.138 34.6176L129.139 34.6839V16.0519L129.138 15.9856C129.138 15.6014 128.93 15.1348 128.712 14.8438H140.809V17.4744C140.52 17.2564 140.051 17.049 139.667 17.049L131.343 17.0485Z" fill="black"/>
<path d="M88.362 14.8471L85.6545 14.8398H82.8477L83.0397 15.3829C83.0883 15.5218 83.1214 15.6653 83.1373 15.8115C83.1387 15.8274 83.1401 15.8428 83.1414 15.8574C83.1455 15.9005 83.1487 15.9418 83.1487 15.9822V34.5225C83.1487 34.716 83.1187 34.9067 83.0615 35.0915L83.0229 35.2163C83.0202 35.2204 83.0188 35.2249 83.017 35.229L82.8481 35.7648H88.363C94.157 35.7648 98.871 31.055 98.871 25.2937C98.871 19.5337 94.156 14.8471 88.362 14.8471ZM88.362 33.5391H85.3549V17.0492H88.362C92.943 17.0492 96.67 20.7474 96.67 25.2937C96.67 29.84 92.943 33.5391 88.362 33.5391Z" fill="black"/>
<path d="M200.19 35.7702H198.069C198.287 35.481 198.495 35.0124 198.495 34.6283V27.7423C197.165 23.8035 193.821 19.8533 188.774 17.4106V34.6256C188.774 35.0111 188.982 35.4783 189.2 35.7675H186.142C186.36 35.4783 186.568 35.0111 186.568 34.6256V15.9876C186.568 15.6035 186.36 15.1349 186.142 14.8457H188.678C193.027 16.7127 196.346 19.5673 198.494 22.7238V16.0435C198.494 16.0248 198.494 16.0062 198.493 15.9876C198.493 15.9631 198.491 15.939 198.49 15.9145C198.489 15.89 198.486 15.8646 198.483 15.8401C198.44 15.4891 198.256 15.0995 198.067 14.8457H201.128C200.951 15.0791 200.782 15.4287 200.723 15.757C200.723 15.7597 200.722 15.7642 200.722 15.7642C200.715 15.806 200.709 15.8473 200.708 15.8873C200.705 15.9132 200.703 15.939 200.703 15.9645C200.702 15.9903 200.702 16.0162 200.702 16.0416V34.6278C200.702 35.012 200.91 35.4805 201.128 35.7698H200.189L200.19 35.7702Z" fill="black"/>
<path d="M79.845 35.7702H77.7241C77.9421 35.481 78.1496 35.0124 78.1496 34.6283V27.7423C76.8201 23.8035 73.4757 19.8533 68.4294 17.4106V34.6256C68.4294 35.0111 68.6374 35.4783 68.8549 35.7675H65.7974C66.0153 35.4783 66.2228 35.0111 66.2228 34.6256V15.9876C66.2228 15.6035 66.0148 15.1349 65.7974 14.8457H68.3332C72.6816 16.7127 76.0015 19.5673 78.1491 22.7238V16.0435C78.1491 16.0248 78.1491 16.0062 78.1478 15.9876C78.1478 15.9631 78.1464 15.939 78.145 15.9145C78.1437 15.89 78.141 15.8646 78.1378 15.8401C78.0946 15.4891 77.9112 15.0995 77.7223 14.8457H80.7826C80.6064 15.0791 80.4375 15.4287 80.3785 15.757C80.3785 15.7597 80.3785 15.7629 80.3771 15.7642C80.3698 15.806 80.3644 15.8473 80.3626 15.8873C80.3599 15.9132 80.3585 15.939 80.3585 15.9645C80.3571 15.9903 80.3571 16.0162 80.3571 16.0416V34.6278C80.3571 35.012 80.5651 35.4805 80.7826 35.7698L79.845 35.7702Z" fill="black"/>
<path d="M109.455 35.7537C109.498 35.513 109.553 35.1947 109.298 34.7162C109.258 34.6417 109.21 34.5627 109.154 34.4796C109.133 34.4483 109.11 34.4165 109.087 34.3852L104.797 28.6842L103.149 26.5062H105.29C107.94 26.5062 110.178 24.3382 110.133 21.6893C110.089 19.1158 107.982 17.0354 105.398 17.0354L103.15 17.039V34.5119C103.15 34.5364 103.15 34.5723 103.151 34.6149C103.151 34.6395 103.153 34.6649 103.154 34.6908C103.179 35.059 103.375 35.4858 103.577 35.7569H100.515C100.632 35.6007 100.747 35.3927 100.827 35.1739C100.847 35.1221 100.864 35.0708 100.879 35.0177C100.923 34.8846 100.935 34.797 100.939 34.6953V34.6794C100.942 34.6308 100.942 34.5777 100.943 34.5146V15.9743C100.943 15.9343 100.941 15.8925 100.936 15.8494C100.935 15.8349 100.933 15.8194 100.932 15.8035C100.916 15.6573 100.883 15.5143 100.834 15.3754L100.642 14.8323H103.149V14.8337L105.261 14.8301C108.918 14.8301 112.043 17.6056 112.318 21.2507C112.567 24.5316 110.441 27.5105 107.369 28.4232L112.874 35.7532L109.455 35.7537Z" fill="black"/>
<path d="M155.236 30.5368C154.126 37.4904 144.9 37.895 142.38 31.4598C142.231 31.0884 142.067 30.8986 141.751 30.6553C142.397 30.431 143.971 29.8888 144.597 29.6727C144.536 29.9565 144.516 30.3079 144.574 30.6448C145.3 33.9175 149.422 34.7825 151.638 32.8846C153.54 31.5238 153.548 28.2134 151.747 26.8182C150.655 25.9714 148.636 25.5818 147.208 25.1028C143.754 24.0871 141.781 20.0375 144.309 16.7548C146.991 13.5551 151.734 14.1313 153.893 17.2615C154.161 17.6234 154.403 18.0297 154.923 18.4138C154.394 18.6658 152.756 19.4445 152.254 19.6842C152.279 19.4264 152.265 19.0704 152.109 18.6863C151.366 17.1988 149.599 16.3838 147.562 17C145.071 17.6978 144.724 20.6818 146.458 22.2369C147.592 23.2912 149.203 23.5095 150.734 23.9318C153.555 24.5284 155.58 27.5465 155.236 30.5368Z" fill="black"/>
<path d="M170.059 30.5368C168.948 37.4904 159.723 37.895 157.203 31.4598C157.053 31.0884 156.89 30.8986 156.573 30.6553C157.22 30.431 158.794 29.8888 159.419 29.6727C159.359 29.9565 159.339 30.3079 159.397 30.6448C160.123 33.9175 164.245 34.7825 166.461 32.8846C168.363 31.5238 168.37 28.2134 166.57 26.8182C165.478 25.9714 163.459 25.5818 162.031 25.1028C158.577 24.0871 156.604 20.0375 159.132 16.7548C161.814 13.5551 166.557 14.1313 168.716 17.2615C168.983 17.6234 169.226 18.0297 169.746 18.4138C169.216 18.6658 167.579 19.4445 167.077 19.6842C167.101 19.4264 167.088 19.0704 166.932 18.6863C166.189 17.1988 164.422 16.3838 162.385 17C159.893 17.6978 159.547 20.6818 161.281 22.2369C162.414 23.2912 164.026 23.5095 165.557 23.9318C168.378 24.5284 170.403 27.5465 170.059 30.5368Z" fill="black"/>
</g>
<defs>
<clipPath id="clip0_991_231">
<rect width="243" height="77" fill="white"/>
</clipPath>
</defs>
</svg>
