<svg width="8" height="8" viewBox="0 0 8 8" fill="none" xmlns="http://www.w3.org/2000/svg">
<path d="M6.95621 0.000189321C7.10573 0.000876025 7.24893 0.0605773 7.35466 0.166306C7.46039 0.272033 7.52009 0.415234 7.52078 0.564754L7.52078 5.89084C7.52345 5.96666 7.51083 6.04224 7.48366 6.11307C7.4565 6.1839 7.41534 6.24854 7.36265 6.30312C7.30996 6.3577 7.24682 6.40111 7.17699 6.43076C7.10716 6.46041 7.03207 6.47569 6.95621 6.47569C6.88035 6.47569 6.80526 6.46041 6.73543 6.43076C6.6656 6.40111 6.60246 6.3577 6.54977 6.30312C6.49708 6.24854 6.45592 6.1839 6.42876 6.11307C6.40159 6.04224 6.38897 5.96666 6.39165 5.89084L6.39165 1.92823L0.964362 7.35552C0.85842 7.46146 0.714731 7.52098 0.564905 7.52098C0.415081 7.52098 0.271392 7.46146 0.16545 7.35552C0.059507 7.24957 -1.04071e-05 7.10588 -1.10814e-05 6.95606C-1.09128e-05 6.80623 0.059507 6.66255 0.165449 6.5566L5.59273 1.12932H1.63012C1.48384 1.12416 1.34527 1.06241 1.24361 0.957102C1.14195 0.85179 1.08514 0.711129 1.08514 0.564755C1.08514 0.41838 1.14195 0.27772 1.24361 0.172407C1.34527 0.0670947 1.48384 0.00535324 1.63012 0.000189522L6.95621 0.000189321Z" fill="black"/>
</svg>
