<svg width="55" height="18" viewBox="0 0 55 18" fill="none" xmlns="http://www.w3.org/2000/svg">
<path d="M5.76297 1.24971L4.18511 1.24233H1.74204C1.57373 1.24233 0.262628 1.25493 0.262628 1.25493L0.239401 3.37402L0 3.38134L0.0148905 0.999747L0.00540855 0.0212676C0.83879 0.061524 3.84733 0.088003 6.96914 0.088003C10.6098 0.088003 12.9555 0.0520289 13.8757 0.0244617L13.8652 1.10774L13.8842 3.51695L13.6364 3.5137C13.6375 3.31783 13.5962 2.51824 13.5984 2.4399C13.5995 2.41133 13.5454 1.33753 13.539 1.25709L12.4938 1.24226H9.36129L8.16156 1.24646L8.16264 16.106C8.16264 16.1272 8.18491 17.0814 8.19019 17.2793C8.31097 17.2963 9.47151 17.3757 9.68119 17.3768L9.76271 17.3757L9.76385 17.7802C9.70028 17.7802 9.62296 17.7876 9.55844 17.7865C8.89865 17.7791 7.8344 17.6996 7.07834 17.6996C6.33392 17.6996 5.28335 17.7738 4.50711 17.7854C4.48592 17.7866 4.32708 17.7824 4.26771 17.7792L4.26561 17.3471C4.27414 17.3482 4.32065 17.3471 4.39371 17.3439C4.72201 17.3312 5.53006 17.2772 5.73975 17.2592L5.7736 17.2539L5.76297 1.24971ZM25.8187 0.00117735C25.8187 0.00117735 26.9952 3.65676 27.1869 4.19257C27.3786 4.72737 30.9739 13.9795 30.9739 13.9795C30.9739 13.9795 32.6618 9.9936 34.1656 5.71647C34.4706 4.85019 34.8699 3.72135 35.1642 2.80638L36.0686 0H36.9942C36.9942 0 37.224 1.63407 37.3044 2.36258C37.5416 4.47964 39.0876 13.0837 39.631 15.9143C39.7666 16.6229 39.869 17.2349 39.869 17.2349C40.0281 17.2466 40.6543 17.309 41.0246 17.3397C41.1016 17.3461 41.3097 17.3578 41.3568 17.3578L41.3594 17.7834C41.3594 17.7834 41.1907 17.7929 41.0985 17.7929C40.2693 17.7877 38.9762 17.7124 38.1801 17.7124C37.4706 17.7124 36.7886 17.7738 36.0791 17.7887C35.9584 17.7919 35.8366 17.7855 35.7137 17.7855V17.364C35.718 17.3629 35.8123 17.3577 35.862 17.3598C36.2083 17.3428 37.1265 17.2528 37.2175 17.2486C37.2186 17.094 37.1677 16.5581 37.0936 16.0105C37.0417 15.6241 36.9538 14.9633 36.8606 14.3121C36.6584 13.0466 35.7234 7.80254 35.4459 6.34647C35.4003 6.10714 35.3717 5.97376 35.3717 5.97376C35.3717 5.97376 32.4765 13.4025 31.893 14.866C31.8358 15.0088 31.7945 15.1105 31.7818 15.1443C31.2236 16.5539 30.7546 17.8099 30.7546 17.8099L29.9317 17.8056L25.4194 6.20775L25.3125 5.93767C25.3125 5.93767 24.9185 8.11174 24.3499 11.1796C24.0503 12.8379 23.4275 16.9827 23.3852 17.256C23.7441 17.3089 24.4506 17.3661 24.6432 17.3608C24.6877 17.3608 24.7629 17.3619 24.8191 17.3619V17.7812C24.7386 17.7929 24.5501 17.7938 24.5426 17.7938C23.8617 17.779 23.3705 17.7271 22.6355 17.7271C22.4428 17.7271 21.4208 17.7801 21.0608 17.7927C20.9105 17.8002 20.6986 17.7833 20.6573 17.7843L20.6585 17.3693C20.6934 17.3693 20.7644 17.3544 20.8099 17.3533C21.1361 17.3385 21.6369 17.2887 22.0616 17.2326C22.0966 17.0282 22.464 14.9855 22.5805 14.2622C23.0317 11.8657 24.3607 3.86313 24.528 2.78405C24.6741 1.61804 24.8435 0.16835 24.8584 0.00848909C25.2109 0.0149609 25.8187 0.00117735 25.8187 0.00117735ZM19.8271 17.7972C19.2151 17.7972 18.1772 17.6954 17.3989 17.6954C16.629 17.6954 15.5849 17.7961 14.8331 17.7961C14.7694 17.7972 14.6562 17.7834 14.5947 17.7834V17.3608C14.743 17.3578 15.4069 17.2973 15.5922 17.2835C15.8082 17.2677 16.0096 17.2572 16.0974 17.2286C16.0974 17.2286 16.0995 16.7203 16.1017 15.9313C16.1102 13.2044 16.126 5.49826 16.1006 2.01004C16.0985 1.53175 16.0971 1.05346 16.0964 0.575145C15.9555 0.561362 15.7585 0.542284 15.6177 0.523288C15.4409 0.513788 14.7144 0.444869 14.5905 0.437474L14.5873 0.0159726C15.3074 0.0159726 16.377 0.0890086 17.2442 0.0890086C18.0734 0.0890086 19.1991 0.01589 20.0494 0.01589L20.0484 0.455458C19.9128 0.464959 19.5845 0.485132 19.5738 0.486137C19.3261 0.51051 18.6304 0.588929 18.4599 0.600441V1.95696C18.4588 5.07998 18.4567 13.2489 18.4556 16.0001V16.8917C18.4545 17.1014 18.4567 17.2274 18.4588 17.2359C18.463 17.2507 18.8983 17.2921 18.9989 17.2984C19.1905 17.3206 19.9816 17.3555 20.0059 17.3608H20.0578V17.7833C20.0061 17.7833 19.8801 17.7972 19.8271 17.7972ZM45.7369 1.28891L45.7337 8.28229L50.2239 8.29718C50.2449 8.29718 51.412 8.26104 51.4406 8.26104C51.5119 8.26104 52.3131 8.21458 52.3443 8.20389C52.3443 8.20389 52.3564 8.13077 52.3748 8.07783C52.4404 7.6542 52.5218 7.25297 52.5428 6.93842C52.5428 6.93842 52.5645 6.80504 52.5651 6.71397L52.8203 6.70869C52.8216 6.74045 52.8343 6.82088 52.833 6.93524C52.8298 7.35676 52.7993 8.23253 52.8006 8.80532C52.8025 9.6324 52.8247 10.3769 52.8292 10.7518C52.8324 10.8577 52.826 11.0281 52.826 11.0281H52.5454C52.5409 10.9868 52.5352 10.9455 52.5295 10.9043C52.4805 10.4287 52.4404 10.092 52.3666 9.60599C52.364 9.58162 52.3481 9.49367 52.343 9.43863C52.1998 9.42915 51.8218 9.41534 51.6207 9.40897C51.5329 9.40687 50.439 9.39841 49.2076 9.3972C48.703 9.39618 47.7956 9.42056 47.4112 9.41954C46.9613 9.41954 46.218 9.44811 45.7331 9.46612L45.7369 15.8062L45.756 16.6237L48.4822 16.6714L52.364 16.6672C52.3825 16.6672 53.2524 16.6323 53.526 16.6375C53.5833 16.6386 53.6997 16.629 53.6997 16.629C53.7252 16.4235 53.757 16.0084 53.7882 15.6123C53.7914 15.5658 53.8894 14.5143 53.8894 14.2314L54.1274 14.2282C54.1274 14.4962 54.0765 17.8182 54.0765 17.8182C53.6393 17.8182 52.2966 17.8161 50.6369 17.7918C49.6321 17.778 48.5115 17.778 47.4048 17.762C46.5088 17.7483 45.6217 17.7165 44.8161 17.7175C43.6649 17.7187 42.5392 17.7948 42.1014 17.7948C42.0008 17.796 41.8239 17.7886 41.7864 17.7886V17.3702H41.8666C42.1364 17.3681 42.9299 17.3215 43.3429 17.2453C43.3429 17.1617 43.3703 16.1271 43.3703 16.1059L43.369 2.38683C43.369 1.7525 43.3576 0.694578 43.3576 0.60137C43.1234 0.573803 43.04 0.559007 42.991 0.548418C42.7422 0.513456 42.2522 0.471094 41.9907 0.452015C41.9251 0.453237 41.8589 0.448287 41.7947 0.43722C41.7947 0.43722 41.7934 0.02639 41.7915 0.0210127C41.8506 0.0242073 41.9735 0.0158013 42.1924 0.0168131C42.6557 0.0179013 43.5071 0.0867426 44.5476 0.0877481C45.2024 0.0888426 46.2568 0.0570691 47.0128 0.04648C48.0902 0.04648 48.9086 0.0369855 49.9516 0.0295018C51.6557 0.0189127 53.1105 0.00622407 53.6794 0.00411771C53.8455 0.00302952 53.9358 0.00201728 53.9358 0.00201728C53.9358 0.0347964 53.9346 0.0719476 53.9346 0.115316C53.9358 0.246598 53.9301 0.478571 53.9326 0.762319C53.9365 1.64648 53.9587 3.037 53.9587 3.4913L53.7195 3.49238L53.7176 3.3674C53.6934 3.05717 53.6412 2.18141 53.5756 1.44437C53.5693 1.3787 53.5572 1.32786 53.5572 1.32786C53.4159 1.32257 52.833 1.30348 52.8228 1.29502C52.8133 1.28656 52.3494 1.27905 52.3398 1.27383C52.3354 1.27173 50.8119 1.26206 49.2401 1.26116C48.1685 1.26015 47.1134 1.26753 46.4668 1.26753C46.3077 1.2667 45.7369 1.28891 45.7369 1.28891Z" fill="#D3D3D3"/>
</svg>
