<svg width="103" height="27" viewBox="0 0 103 27" fill="none" xmlns="http://www.w3.org/2000/svg">
<path d="M90.5973 13.3704C90.5973 11.8349 91.4286 10.7941 92.625 10.7941C93.9768 10.7941 94.774 11.7666 94.774 13.3704C94.774 14.9742 93.9768 15.9636 92.625 15.9636C91.4292 15.9638 90.5973 14.906 90.5973 13.3704ZM92.1746 17.8064C93.3009 17.8064 94.1675 17.3456 94.774 16.578L94.9471 17.6358H96.9059V9.10511H94.9471L94.774 10.1628C94.1675 9.39509 93.3009 8.93453 92.1746 8.93453C89.8519 8.93453 88.3447 10.8624 88.3447 13.3705C88.3447 15.8786 89.8519 17.8064 92.1746 17.8064ZM84.8439 8.18327H87.0276V6.08483H84.8439V8.18327ZM84.8439 17.6357H87.0276V9.10511H84.8439V17.6357ZM80.0602 17.8064C82.2787 17.8064 83.6652 16.7144 83.6652 14.9913C83.6652 13.7117 82.9893 12.8928 81.6546 12.6368L79.6622 12.2784C78.9857 12.159 78.6737 11.9031 78.6737 11.4596C78.6737 10.9648 79.2112 10.6407 79.9913 10.6407C80.7708 10.6407 81.3255 10.999 81.4644 11.5108H83.5269C83.3702 9.94121 82.0184 8.93453 80.0255 8.93453C77.8771 8.93453 76.5424 9.97523 76.5424 11.6131C76.5424 12.8927 77.3566 13.7969 78.8474 14.087L80.8403 14.4453C81.2907 14.5307 81.5339 14.8037 81.5339 15.179C81.5339 15.7591 80.9963 16.1003 80.0779 16.1003C79.1417 16.1003 78.553 15.6909 78.4317 14.9913H76.2651C76.3687 16.7314 77.8247 17.8064 80.0602 17.8064ZM69.4024 12.3979C69.5932 11.3742 70.4599 10.6407 71.482 10.6407C72.5918 10.6407 73.2848 11.2549 73.4755 12.3979H69.4024ZM71.482 17.8064C73.6657 17.8064 75.2606 16.6803 75.399 14.9913H73.3884C73.2153 15.6567 72.5571 16.1003 71.482 16.1003C70.3557 16.1003 69.3677 15.179 69.3506 13.9166H75.5203C75.5203 13.763 75.5373 13.6094 75.5373 13.3194C75.5373 10.6237 73.9783 8.93465 71.4826 8.93465C69.0039 8.93465 67.2711 10.7261 67.2711 13.3706C67.2711 16.0151 69.0039 17.8064 71.482 17.8064ZM58.3456 17.6357H60.5293V12.705C60.5293 11.5449 61.2746 10.7942 62.2796 10.7942C63.2328 10.7942 63.874 11.4426 63.874 12.5686V17.6358H66.0577V12.3126C66.0577 10.2482 64.8967 8.93441 63.0768 8.93441C61.9676 8.93441 61.0662 9.37799 60.5291 10.1286V6.08405H58.3456V17.6357ZM55.0183 17.6357H57.098V15.8613H55.7982C55.3477 15.8613 55.0183 15.5372 55.0183 15.0935V10.8794H57.098V9.10511H55.0183V6.59831H52.8347V9.10511H51.3616V10.8794H52.8347V15.486C52.8347 16.7314 53.7532 17.6357 55.0183 17.6357ZM42.8177 17.6357H45.0013V12.705C45.0013 11.5449 45.7466 10.7942 46.7516 10.7942C47.7048 10.7942 48.346 11.4426 48.346 12.5686V17.6358H50.5296V12.3126C50.5296 10.2482 49.3685 8.93441 47.5488 8.93441C46.4051 8.93441 45.4865 9.41207 44.9493 10.214L44.776 9.10493H42.8177V17.6357ZM34.3259 20.6044H36.5269C37.4281 20.6044 38.1906 20.0584 38.4678 19.2225L41.8645 9.10523H39.5596L37.7572 14.9913L35.9549 9.10523H33.6847L36.6135 17.8235C36.7868 18.3183 36.5096 18.8472 35.9203 18.8472H34.326L34.3259 20.6044ZM29.8893 17.8064C32.1076 17.8064 33.494 16.7144 33.494 14.9913C33.494 13.7117 32.8182 12.8928 31.4837 12.6368L29.4907 12.2784C28.8148 12.159 28.5029 11.9031 28.5029 11.4596C28.5029 10.9648 29.0401 10.6407 29.82 10.6407C30.5999 10.6407 31.1544 10.999 31.2931 11.5108H33.3554C33.1995 9.94121 31.8477 8.93453 29.8547 8.93453C27.7057 8.93453 26.3713 9.97523 26.3713 11.6131C26.3713 12.8927 27.1858 13.7969 28.6762 14.087L30.6692 14.4453C31.1198 14.5307 31.3624 14.8037 31.3624 15.179C31.3624 15.7591 30.8252 16.1003 29.9067 16.1003C28.9708 16.1003 28.3816 15.6909 28.2603 14.9913H26.094C26.1979 16.7314 27.6537 17.8064 29.8893 17.8064Z" fill="#AEAEAE"/>
<path d="M8.44645 18.8033H17.9361C20.2739 18.8033 21.7631 17.3885 22.0056 15.2233L22.4905 10.7397H19.2174L18.7673 14.8313C18.7153 15.3769 18.3689 15.6836 17.7974 15.6836H8.75819L8.44645 18.8033ZM8.75819 15.6836L9.20841 11.5921C9.26039 11.0465 9.60675 10.7397 10.1782 10.7397H19.2174L19.5294 7.62H10.0396C7.7018 7.62 6.21257 9.03504 5.97006 11.2L5.48523 15.6836H8.75819Z" fill="#AEAEAE"/>
</svg>
