<svg width="103" height="21" viewBox="0 0 103 21" fill="none" xmlns="http://www.w3.org/2000/svg">
<path d="M60.9459 6.36678V4.30676H53.5735V14.9056H60.9459V12.756H56.5585V10.4064H60.2077V8.34899H56.5585V6.36678H60.9459Z" fill="#AAAAAA"/>
<path d="M73.9466 12.8142H69.3407V4.30676H66.3189V14.9056H73.9466V12.8142Z" fill="#AAAAAA"/>
<path d="M98.283 8.34609C96.2439 7.88825 95.5299 7.83511 95.5299 7.02661C95.5299 6.27631 96.5403 6.04292 97.1216 6.04292C98.0616 6.04292 99.1718 6.26143 100.303 6.83957L101.126 4.88923C99.9662 4.25923 98.4787 3.99695 97.0479 3.99695C94.2361 3.99695 92.3493 5.13407 92.2701 7.35095C92.1899 9.3727 93.839 10.1289 95.3549 10.4409C96.8157 10.7419 98.2984 10.9995 98.3282 11.8646C98.3549 12.6625 97.6351 13.0043 96.2768 13.0043C95.0186 13.0043 93.8489 12.6013 92.654 12.1022L91.9553 14.2222C93.3293 14.8045 94.7241 15.1255 96.1616 15.1255C98.1593 15.1255 99.6171 14.8147 100.69 13.8107C101.434 13.1212 101.677 12.2888 101.677 11.4943C101.679 9.81903 100.631 8.87535 98.283 8.34609Z" fill="#AAAAAA"/>
<path d="M49.287 6.39908V4.30676H40.0137V6.39908H43.1467V14.9056H46.1504V6.39908H49.287Z" fill="#AAAAAA"/>
<path d="M84.2552 4.30676V11.0407C84.2552 11.5682 84.2552 11.714 84.2239 11.9194C84.1265 12.5613 83.5031 12.9336 82.5075 12.9468C81.7708 12.9349 81.2306 12.7177 80.9797 12.3338C80.8529 12.1366 80.7914 11.7821 80.7914 11.2158V4.30676H77.6578V11.6112C77.6578 12.6233 77.7933 13.0803 78.2518 13.658C79.0084 14.6004 80.4831 15.0961 82.5136 15.0961C82.5367 15.0961 82.5566 15.0961 82.5806 15.0961C82.5913 15.0961 82.6095 15.0961 82.6248 15.0961C85.3435 15.0961 86.7482 14.0393 87.1536 13.0505C87.3562 12.571 87.371 12.344 87.371 11.3765V4.30676H84.2552Z" fill="#AAAAAA"/>
<path d="M41.4291 1.40461L23.8554 4.89208V6.11379L23.9113 6.09934C35.5208 3.2865 41.4288 1.59462 41.4764 1.58272C41.5421 1.56572 41.5651 1.51471 41.5562 1.47177C41.5464 1.42671 41.4991 1.3893 41.4291 1.40461Z" fill="#AAAAAA"/>
<path d="M27.141 1.0714C26.2868 1.11986 24.705 2.38112 23.8367 3.13014C20.3792 6.11174 17.8085 8.85234 15.9392 11.7226C12.0425 13.803 7.07368 15.9425 2.14107 17.6122L2.02209 17.6522L1.07275 20.2002L1.6148 19.9915C4.7528 18.7995 9.99033 16.561 14.7383 14.0725C14.4709 14.7832 14.3361 15.4366 14.3361 16.0322C14.3361 16.4764 14.4107 16.8896 14.5596 17.2649C14.8581 18.0148 15.4467 18.5827 16.2625 18.9054C17.4775 19.3887 19.1352 19.3976 21.0266 18.8267C25.8586 17.3669 31.59 12.8848 32.8378 11.9933L32.8857 11.9598C32.9345 11.9245 32.9382 11.8713 32.9176 11.8352C32.8903 11.794 32.8329 11.7829 32.7853 11.8118L32.7238 11.8488C31.3849 12.6501 24.8777 16.501 20.6479 17.6318C18.4934 18.2078 16.8514 17.8932 16.2322 17.0298C16.0173 16.7348 15.9136 16.3616 15.9136 15.9263C15.9136 15.0765 16.3149 13.9947 17.0877 12.7921C17.7991 12.3887 18.4635 11.9942 19.0623 11.6193C23.1889 9.3076 27.9432 4.81308 28.1462 2.06952C28.147 2.05082 28.147 2.02914 28.147 2.00874C28.147 1.77196 28.0443 1.52838 27.8639 1.34856C27.6702 1.15175 27.4152 1.05355 27.141 1.0714ZM26.6808 2.37899C26.9516 2.20428 27.0297 2.31353 26.9499 2.51077C26.8212 2.82577 26.2254 4.72085 21.8015 8.34093C20.6471 9.28336 19.8261 9.81261 18.1637 10.7937C20.8859 6.99126 24.8602 3.55737 26.6808 2.37899Z" fill="#D3D3D3"/>
<path d="M23.7978 4.90356L5.30847 8.865L4.5954 10.7818L23.8554 6.11339L24.4512 5.77797L24.4346 4.90568L23.7978 4.90356Z" fill="#AAAAAA"/>
</svg>
