<svg width="121" height="32" viewBox="0 0 121 32" fill="none" xmlns="http://www.w3.org/2000/svg">
<path d="M96.7019 24.2101C96.5587 24.2101 96.4599 24.0977 96.4599 23.9553V17.6077C96.4599 17.4652 96.5738 17.3529 96.7019 17.3529H97.4036C97.5468 17.3529 97.6449 17.4652 97.6449 17.6077V17.9673C97.743 17.825 98.1954 17.3004 99.2372 17.3004C100.044 17.3004 100.641 17.6151 101.071 18.2821C101.071 18.2821 101.591 17.3154 103.108 17.3004C104.632 17.2854 105.508 18.1772 105.508 19.8859V23.9479C105.508 24.0902 105.395 24.2026 105.266 24.2026H104.511C104.368 24.2026 104.27 24.0902 104.27 23.9479V20.0283C104.27 18.9791 103.832 18.3946 102.904 18.3946C102.014 18.3946 101.583 19.0615 101.583 20.2981V23.9479C101.583 24.0902 101.47 24.2026 101.342 24.2026H100.595C100.452 24.2026 100.354 24.0902 100.354 23.9479V20.0283C100.354 18.9791 99.9389 18.3946 99.056 18.3946C98.1203 18.3946 97.6749 19.0615 97.6749 20.2981V23.9479C97.6749 24.0902 97.5618 24.2026 97.4337 24.2026H96.7019V24.2101ZM92.197 23.1834C93.4421 23.1834 94.37 22.2317 94.37 20.7703C94.37 19.3088 93.4421 18.372 92.197 18.372C90.9519 18.372 90.009 19.3088 90.009 20.7703C90.009 22.2317 90.9519 23.1834 92.197 23.1834ZM92.197 24.2776C90.2653 24.2776 88.8319 22.8237 88.8319 20.7703C88.8319 18.7392 90.2653 17.2779 92.197 17.2779C94.1287 17.2779 95.5471 18.7168 95.5471 20.7703C95.5471 22.8162 94.1287 24.2776 92.197 24.2776ZM86.4398 24.2926C84.312 24.2926 82.9767 22.8312 82.9767 20.7853C82.9767 18.7392 84.312 17.2928 86.4398 17.2928C87.0813 17.2928 87.6548 17.4203 88.1453 17.6901C88.2283 17.735 88.2885 17.8324 88.2885 17.9299V18.8967C88.2885 19.0391 88.1145 19.114 88.0164 19.009C87.594 18.5744 87.0284 18.372 86.4248 18.372C85.0666 18.372 84.2368 19.2938 84.2368 20.7703C84.2368 22.2466 85.0666 23.1834 86.4248 23.1834C87.0284 23.1834 87.6019 22.996 88.0322 22.5614C88.1303 22.464 88.3035 22.5314 88.3035 22.6738V23.6406C88.3035 23.738 88.2355 23.8354 88.1603 23.8804C87.6699 24.1502 87.0735 24.2926 86.4398 24.2926ZM81.9199 24.2626C81.4896 24.2626 81.0901 23.9328 81.0901 23.4382C81.0901 22.9661 81.4745 22.6138 81.9199 22.6138C82.3652 22.6138 82.7196 22.9436 82.7196 23.4382C82.7196 23.9253 82.3502 24.2626 81.9199 24.2626ZM75.9214 24.2926C74.2761 24.2926 72.9029 24.0527 71.869 23.4832C71.7258 23.4007 71.6728 23.1909 71.7408 23.041L72.4726 21.4522C72.5556 21.2798 72.7826 21.2124 72.9558 21.3098C73.8988 21.8194 74.8876 21.9768 76.0496 21.9768C77.4679 21.9768 77.9963 21.5946 77.9963 21.01C77.9963 19.2788 71.5825 21.04 71.5825 16.8357C71.5825 14.8348 73.4012 13.4258 76.4949 13.4258C77.8152 13.4258 79.1734 13.7256 80.1843 14.2202C80.3426 14.3026 80.4185 14.505 80.3426 14.6624L79.6108 16.2287C79.5278 16.401 79.3245 16.4685 79.1505 16.386C78.2075 15.9289 77.3777 15.7416 76.5021 15.7416C75.1288 15.7416 74.5253 16.1687 74.5253 16.7233C74.5253 18.5295 80.939 16.7833 80.939 20.9426C80.9311 22.9136 79.0982 24.2926 75.9214 24.2926ZM66.0969 24.2926C64.4519 24.2926 63.0786 24.0527 62.0449 23.4832C61.9015 23.4007 61.8487 23.1909 61.9166 23.041L62.6485 21.4522C62.7315 21.2798 62.9579 21.2124 63.1314 21.3098C64.0747 21.8194 65.0631 21.9768 66.2251 21.9768C67.6437 21.9768 68.1719 21.5946 68.1719 21.01C68.1719 19.2788 61.7581 21.04 61.7581 16.8357C61.7581 14.8348 63.5766 13.4258 66.6703 13.4258C67.9908 13.4258 69.349 13.7256 70.3601 14.2202C70.5186 14.3026 70.594 14.505 70.5185 14.6624L69.7866 16.2287C69.7036 16.401 69.4999 16.4685 69.3263 16.386C68.3831 15.9289 67.5532 15.7416 66.6779 15.7416C65.3046 15.7416 64.7009 16.1687 64.7009 16.7233C64.7009 18.5295 71.1146 16.7833 71.1146 20.9426C71.1071 22.9136 69.2735 24.2926 66.0969 24.2926ZM53.4806 17.9149H57.9476C57.8344 16.6034 57.1025 15.7266 55.7443 15.7266C54.3937 15.7266 53.5787 16.566 53.4806 17.9149ZM56.1517 24.2776C52.8317 24.2776 50.485 22.2916 50.485 18.8367C50.485 15.6816 52.4846 13.4108 55.7141 13.4108C58.8455 13.4108 60.7696 15.4868 60.7696 18.8667C60.7696 19.024 60.7546 19.2414 60.7395 19.4213C60.7244 19.5786 60.6112 19.6911 60.4528 19.6911H53.4958C53.6391 20.9726 54.6879 21.9469 56.5743 21.9469C57.344 21.9469 58.0759 21.782 59.1096 21.2798C59.2832 21.19 59.5095 21.2499 59.5926 21.4223L60.3244 23.0036C60.4075 23.1759 60.3396 23.3632 60.1811 23.4532C59.2379 23.9778 57.7288 24.2776 56.1517 24.2776ZM39.5892 24.1202C39.3779 24.1202 39.2195 23.9628 39.2195 23.7605V10.5255C39.2195 10.3157 39.3779 10.1583 39.5892 10.1583H41.9359C42.1472 10.1583 42.3056 10.3157 42.3056 10.5255V14.4375C43.1054 13.6656 43.8525 13.4108 45.2107 13.4108C47.7309 13.4108 49.1872 14.8722 49.1872 18.0723V23.753C49.1872 23.9553 49.0287 24.1127 48.8175 24.1127H46.4708C46.2595 24.1127 46.1011 23.9553 46.1011 23.753V18.5519C46.1011 16.8357 45.603 16.0563 44.4109 16.0563C42.9922 16.0563 42.3056 16.9631 42.3056 18.8967V23.753C42.3056 23.9553 42.1472 24.1127 41.9359 24.1127H39.5892V24.1202ZM34.0508 24.3225C29.7724 24.3225 26.5806 21.3548 26.5806 17.2329C26.5806 13.1111 29.7875 10.1433 34.0809 10.1583C35.3109 10.1433 36.4502 10.3757 37.4312 10.8253C37.5896 10.9002 37.7028 11.0651 37.7028 11.2525V13.5383C37.7028 13.868 37.3029 14.0404 37.0463 13.838C36.2314 13.186 35.2883 12.8562 34.2243 12.8562C31.6361 12.8562 29.8026 14.6698 29.8026 17.2479C29.8026 19.8334 31.6361 21.6396 34.2243 21.6396C35.2958 21.6396 36.2239 21.3098 37.0388 20.6278C37.3029 20.4105 37.6877 20.5903 37.6877 20.9202V23.2209C37.6877 23.3933 37.5745 23.5581 37.4161 23.633C36.4502 24.0828 35.2958 24.3225 34.0508 24.3225Z" fill="#ADADAD"/>
<path d="M22.3472 28.4445H24.4826C31.5905 28.3171 31.7942 26.9381 31.7942 26.8407C31.7942 26.391 31.7641 25.9488 31.6961 25.5367C27.9083 24.5774 25.1919 21.2125 25.1919 17.2929C25.1919 15.2095 25.8257 13.3285 27.1914 11.7546L25.7729 10.8254C26.784 10.0984 27.4405 8.91431 27.4405 7.58034C27.4405 5.90159 26.3991 4.45519 24.9202 3.86314C24.4524 3.67578 21.1626 14.4376 21.1626 14.4376C21.1475 14.6849 21.1475 15.0072 21.1475 15.3969C21.1475 16.4686 23.7884 16.3037 23.6451 17.248C23.4338 18.6569 23.3885 19.7361 22.1661 23.1235C21.3436 25.4168 15.8429 23.1235 15.4505 24.2477C15.1789 25.0196 15.0355 25.8964 15.0355 26.8407C15.0355 26.9381 15.2392 28.3171 22.3472 28.4445Z" fill="#929292"/>
<path d="M23.2604 22.9583C23.7131 20.9049 24.113 18.7165 24.362 17.405C24.6638 15.7713 22.1738 15.479 21.1476 15.3291C21.1023 16.723 20.7099 18.9938 17.3672 21.5269C16.4693 22.2089 15.7978 23.1831 15.4054 24.3672C16.3109 24.8019 17.5106 25.0642 19.3668 25.0642C20.5591 25.0642 22.7623 25.2066 23.2604 22.9583ZM25.0109 14.4223C25.4033 13.4031 25.358 12.7136 25.358 12.7136L23.7131 10.81C25.4636 10.0681 26.5201 8.66665 26.5201 7.0404C26.5201 5.74388 25.8937 4.58227 24.9355 3.85531C24.4677 3.66795 23.9545 3.55554 23.4188 3.55554C21.1928 3.55554 19.3894 5.34668 19.3894 7.565C19.3894 8.89897 20.0459 10.0831 21.057 10.81L18.152 12.7136C18.152 13.3506 18.3029 13.8677 18.6047 14.4223H25.0109Z" fill="#BABABA"/>
<path d="M23.1847 4.37993C25.5087 4.73965 22.1132 7.42263 21.0417 7.29519C20.0231 7.16783 21.004 4.04269 23.1847 4.37993Z" fill="#D3D3D3"/>
</svg>
