<svg width="31" height="35" viewBox="0 0 31 35" fill="none" xmlns="http://www.w3.org/2000/svg">
<g clip-path="url(#clip0_980_6380)">
<mask id="mask0_980_6380" style="mask-type:luminance" maskUnits="userSpaceOnUse" x="0" y="0" width="31" height="35">
<path d="M31 0H0V35H31V0Z" fill="white"/>
</mask>
<g mask="url(#mask0_980_6380)">
<mask id="mask1_980_6380" style="mask-type:luminance" maskUnits="userSpaceOnUse" x="-14" y="-8" width="59" height="51">
<path d="M-13.319 -7.08112H44.1623V42.0657H-13.319V-7.08112Z" fill="white"/>
</mask>
<g mask="url(#mask1_980_6380)">
<path fill-rule="evenodd" clip-rule="evenodd" d="M28.1848 0H2.81518C0.758881 0 0 0.738364 0 2.74V26.8929C0 27.1193 0.00938822 27.3297 0.0299538 27.5246C0.0767691 27.9616 0.0855831 28.3849 0.503217 28.867C0.544029 28.9142 0.97041 29.2229 0.97041 29.2229C1.19976 29.3324 1.35637 29.4129 1.61503 29.5143L14.1074 34.6066C14.7559 34.8959 15.027 35.0086 15.4981 34.9996H15.5H15.5018C15.9729 35.0086 16.244 34.8959 16.8926 34.6066L29.3849 29.5143C29.6436 29.4129 29.8001 29.3324 30.0295 29.2229C30.0295 29.2229 30.456 28.9142 30.4967 28.867C30.9143 28.3849 30.9231 27.9616 30.9699 27.5246C30.9905 27.3297 31 27.1193 31 26.8929V2.74C31 0.738364 30.2411 0 28.1848 0Z" fill="#D3D3D3"/>
<path d="M26.4855 24.2824L26.4798 24.3382L26.4742 24.3994L26.4626 24.4552L26.4455 24.5108L26.4344 24.561L26.4172 24.6167L26.3943 24.6669L26.3714 24.7115L26.3488 24.7616L26.3202 24.8061L26.2916 24.8508L26.2575 24.8953L26.2289 24.9398L26.1949 24.9788L26.1548 25.0178L26.1208 25.0513L26.075 25.0903L26.0352 25.1238L25.9894 25.1571L25.944 25.1847L25.8985 25.218L25.8469 25.2459L25.7957 25.2682L25.7445 25.296L25.6872 25.3184L25.6304 25.3407L25.5735 25.3573L25.5166 25.3741L25.465 25.3908L25.4081 25.402L25.3569 25.4131L25.3057 25.4242L25.2485 25.4353L25.1915 25.4409L25.1403 25.4465L25.083 25.4521L25.0204 25.4577L24.9634 25.4632H24.9065H24.8439H24.7809H24.724L24.667 25.4577H24.6045L24.5475 25.4521L24.4902 25.4465L24.4276 25.4409L24.3707 25.4297L24.3138 25.4242L24.2565 25.4131L24.1995 25.402L24.1426 25.3908L24.0857 25.3797L24.0285 25.363L23.9772 25.3518L23.9204 25.3351L23.8634 25.3184L23.8119 25.296L23.755 25.2793L23.7038 25.2627L23.6468 25.2404L23.5954 25.218L23.5441 25.1958L23.4929 25.1683L23.4414 25.146L23.3902 25.1181L23.3447 25.0903L23.2932 25.0624L23.2477 25.0346L23.2019 25.0067L23.1564 24.9733L23.111 24.9398L23.0652 24.9064L23.0196 24.873L22.9796 24.8396L22.9341 24.8006L22.9684 24.756L23.0082 24.717L23.0425 24.6724L23.0824 24.6279L23.1167 24.5889L23.1507 24.5443L23.1908 24.4997L23.2248 24.4607L23.2649 24.4162L23.2989 24.3772L23.3389 24.3326L23.373 24.288L23.4074 24.249L23.4471 24.2045L23.4815 24.1599L23.5212 24.1209L23.5555 24.0763L23.601 24.1098L23.6522 24.1432L23.6981 24.1767L23.7493 24.21L23.795 24.2379L23.8463 24.2712L23.8917 24.2992L23.9433 24.3214L23.9887 24.3493L24.0399 24.3716L24.0914 24.3939L24.1426 24.4162L24.1939 24.4329L24.2454 24.4552L24.3023 24.4719L24.3592 24.4886L24.4104 24.5053L24.4677 24.5165L24.5246 24.5276L24.5815 24.5387L24.6442 24.5443L24.7014 24.5554H24.7583L24.821 24.561H24.8779H24.9463L25.0089 24.5554L25.0662 24.5443L25.1174 24.5331L25.1686 24.522L25.2144 24.5053L25.2542 24.483L25.3 24.4496L25.3339 24.4106L25.3569 24.366L25.3741 24.3159L25.3798 24.2601V24.249L25.3741 24.1822L25.3512 24.1264L25.3225 24.0875L25.2828 24.054L25.2369 24.0206L25.1915 23.9983L25.1403 23.9761L25.083 23.9538L25.0147 23.926L24.9749 23.9148L24.9295 23.9037L24.8779 23.8869L24.8267 23.8757L24.7698 23.859L24.7125 23.8479L24.6499 23.8312L24.5929 23.82L24.5303 23.8033L24.4734 23.7922L24.4161 23.7755L24.3592 23.7644L24.3023 23.7476L24.2507 23.731L24.1939 23.7198L24.1426 23.7031L24.0914 23.6863L24.0399 23.6696L23.9772 23.6473L23.9204 23.625L23.8634 23.6027L23.8062 23.5804L23.755 23.5526L23.6981 23.5248L23.6522 23.497L23.601 23.4691L23.5555 23.4357L23.5098 23.4078L23.47 23.3743L23.43 23.3353L23.3902 23.2964L23.3558 23.2573L23.3218 23.2184L23.2932 23.1794L23.2649 23.1348L23.2362 23.0847L23.2134 23.046L23.1962 23.0014L23.1793 22.9513L23.1622 22.9067L23.1507 22.8509L23.1393 22.8008L23.1335 22.7452L23.1278 22.6894L23.1221 22.6282V22.5669V22.5558V22.5L23.1278 22.4443L23.1335 22.3942L23.1393 22.3385L23.1507 22.2884L23.1622 22.2382L23.1793 22.188L23.1908 22.1379L23.2134 22.0878L23.2362 22.0376L23.2591 21.9875L23.2875 21.9373L23.316 21.8872L23.3501 21.8426L23.3845 21.7981L23.4242 21.7535L23.4643 21.7145L23.504 21.6699L23.5498 21.6309L23.5896 21.6031L23.6353 21.5696L23.6809 21.5362L23.7264 21.5083L23.7779 21.4805L23.8291 21.4582L23.8802 21.4303L23.9318 21.4081L23.9887 21.3914L24.0456 21.3691L24.0972 21.3524L24.1426 21.3412L24.1939 21.3301L24.2454 21.319L24.3023 21.3078L24.3535 21.2966L24.4104 21.2911L24.4677 21.2855L24.5246 21.2799L24.5815 21.2744H24.6384H24.7014H24.7641H24.8267L24.8893 21.2799L24.9521 21.2855H25.0089L25.0719 21.2911L25.1288 21.3022L25.1915 21.3078L25.2485 21.319L25.3 21.3301L25.3569 21.3412L25.4138 21.3524L25.465 21.3635L25.5222 21.3802L25.5735 21.397L25.6247 21.4081L25.6819 21.4303L25.7331 21.4471L25.7843 21.4693L25.8355 21.4916L25.8927 21.5139L25.944 21.5418L25.9894 21.5641L26.0409 21.592L26.0922 21.6198L26.1377 21.6476L26.1891 21.6811L26.2347 21.7089L26.2804 21.7424L26.3259 21.7758L26.3714 21.8092L26.3374 21.8538L26.3087 21.8983L26.2747 21.9429L26.2404 21.9875L26.2064 22.0376L26.1777 22.0822L26.1433 22.1268L26.1093 22.1713L26.0808 22.2159L26.0467 22.2605L26.0123 22.3051L25.9837 22.3496L25.9497 22.3998L25.9153 22.4443L25.8813 22.4889L25.8527 22.5335L25.8186 22.578L25.7728 22.5447L25.7217 22.5167L25.6762 22.4889L25.6304 22.4554L25.5792 22.4332L25.5333 22.4053L25.4822 22.3829L25.4367 22.3607L25.3852 22.3385L25.3397 22.3162L25.2885 22.2995L25.2427 22.2772L25.18 22.2605L25.1231 22.2437L25.0662 22.2271L25.0089 22.2159L24.9521 22.2048L24.8951 22.1936L24.8382 22.188L24.7809 22.1824L24.7297 22.1768H24.6728H24.6045L24.5418 22.188L24.4845 22.1992L24.4333 22.2103L24.3879 22.2326L24.3478 22.2548L24.2965 22.2995L24.2622 22.3496L24.2397 22.3998L24.2339 22.4554V22.4666L24.2397 22.5391L24.2679 22.6003L24.2909 22.6337L24.3305 22.6728L24.3821 22.7006L24.4276 22.7284L24.4845 22.7508L24.5475 22.7731L24.6159 22.7953L24.6614 22.8064L24.7068 22.8232L24.7583 22.8343L24.8095 22.8509L24.8664 22.8621L24.9295 22.8789L24.9921 22.8955L25.0548 22.9123L25.1174 22.9234L25.1743 22.9401L25.2369 22.9569L25.2942 22.968L25.3512 22.9847L25.4081 23.0014L25.4593 23.0182L25.5166 23.0349L25.5678 23.0515L25.6189 23.0683L25.6819 23.0902L25.7388 23.1181L25.7957 23.1404L25.8527 23.1682L25.9042 23.1961L25.9554 23.224L26.0009 23.2518L26.0467 23.2853L26.0922 23.3131L26.1377 23.3521L26.1835 23.391L26.2232 23.4357L26.2632 23.4746L26.2973 23.5192L26.3316 23.5693L26.3599 23.6139L26.3886 23.6641L26.4114 23.7087L26.4287 23.7588L26.4455 23.8089L26.4569 23.859L26.4683 23.9148L26.4798 23.9705L26.4855 24.0262L26.4913 24.0875V24.1487V24.1599V24.2212L26.4855 24.2824ZM22.4878 25.3964H22.4306H22.3736H22.3167H22.2598H22.2026H22.1456H22.0888H22.0318H21.9688H21.9119H21.855H21.7981H21.7407H21.6839H21.6269H21.57H21.5127H21.4558H21.3989H21.342H21.285H21.2278H21.1709H21.114H21.057H20.9997H20.9428H20.8859H20.8232H20.766H20.709H20.6522H20.5953H20.538H20.4811H20.4241H20.3672H20.3099H20.253H20.1962H20.1392H20.0819H20.025H19.968H19.9111H19.8539H19.797H19.7343H19.6774H19.6205H19.5632H19.5063H19.4493H19.3925H19.3353H19.2783H19.2214V25.3407V25.2849V25.2292V25.1739V25.1181V25.0624V25.0067V24.951V24.8953V24.8396V24.7839V24.7281V24.6724V24.6167V24.561V24.5053V24.4496V24.3939V24.3437V24.288V24.2323V24.1767V24.1209V24.0651V24.0094V23.9538V23.898V23.8423V23.7866V23.731V23.6752V23.6195V23.5638V23.5081V23.4523V23.3966V23.3409V23.2853V23.2296V23.1738V23.1181V23.0627V23.007V22.9513V22.8955V22.8398V22.7842V22.7284V22.6728V22.617V22.5613V22.5056V22.4498V22.3942V22.3441V22.2884V22.2326V22.1768V22.1212V22.0655V22.0098V21.954V21.8983V21.8426V21.7869V21.7312V21.6755V21.6198V21.5641V21.5083V21.4527V21.397V21.3412H19.2783H19.3353H19.3925H19.4493H19.5063H19.5632H19.6205H19.6774H19.7343H19.7913H19.8485H19.9055H19.9623H20.0193H20.0707H20.1277H20.1847H20.2416H20.2989H20.3558H20.4126H20.4696H20.5268H20.5838H20.6407H20.6977H20.7549H20.8118H20.8687H20.9256H20.9829H21.0399H21.0968H21.1537H21.2106H21.2679H21.3248H21.3817H21.4386H21.496H21.5529H21.6097H21.6666H21.7183H21.7752H21.832H21.889H21.9462H22.0032H22.0601H22.117H22.1743H22.2312H22.288H22.345H22.4023H22.4593H22.5162V21.397V21.4471V21.5027V21.5585V21.6142V21.6644V21.7201V21.7758V21.8259V21.8816V21.9373V21.9875V22.0432V22.0989V22.1546V22.2048V22.2605H22.4593H22.4023H22.345H22.288H22.2312H22.1743H22.1227H22.0658H22.0089H21.952H21.8947H21.8378H21.7808H21.7239H21.6666H21.6097H21.5529H21.496H21.4386H21.3874H21.3305H21.2736H21.2163H21.1595H21.1025H21.0456H20.9883H20.9314H20.8745H20.8176H20.7603H20.7033H20.6522H20.5953H20.538H20.4811H20.4241H20.3672H20.3099V22.3162V22.3718V22.4275V22.4833V22.5391V22.5891V22.6448V22.7006V22.7563V22.8121V22.8677V22.9234H20.3672H20.4241H20.4811H20.538H20.5953H20.6522H20.709H20.766H20.8176H20.8745H20.9314H20.9883H21.0456H21.1025H21.1595H21.2163H21.2736H21.3305H21.3874H21.4444H21.5016H21.5585H21.6155H21.6725H21.7296H21.7866H21.8378H21.8947H21.952H22.0089H22.0658H22.1227H22.1799H22.2369H22.2938V22.9791V23.0293V23.0847V23.1404V23.1905V23.2462V23.3019V23.3521V23.4078V23.4635V23.5192V23.5693V23.625V23.6807V23.731V23.7866H22.2369H22.1799H22.1227H22.0658H22.0089H21.952H21.8947H21.8378H21.7866H21.7296H21.6725H21.6155H21.5585H21.5016H21.4444H21.3874H21.3305H21.2736H21.2163H21.1595H21.1025H21.0456H20.9883H20.9314H20.8745H20.8176H20.766H20.709H20.6522H20.5953H20.538H20.4811H20.4241H20.3672H20.3099V23.8423V23.9037V23.9593V24.015V24.0763V24.1321V24.1878V24.249V24.3047V24.3605V24.4217V24.4774H20.3672H20.4241H20.4811H20.538H20.5953H20.6522H20.709H20.766H20.8232H20.8859H20.9428H20.9997H21.057H21.114H21.1709H21.2278H21.285H21.342H21.3989H21.4558H21.5127H21.57H21.6269H21.6839H21.7407H21.7981H21.855H21.9119H21.9688H22.0318H22.0888H22.1456H22.2026H22.2598H22.3167H22.3736H22.4306H22.4878H22.5448V24.5331V24.5833V24.6391V24.6947V24.7504V24.8006V24.8563V24.912V24.9621V25.0178V25.0735V25.1238V25.1791V25.2347V25.2904V25.3407V25.3964H22.4878ZM18.3227 25.3964H18.2658H18.2088H18.1459H18.089H18.0321H17.9751H17.9178H17.8609H17.7983H17.7414H17.6844H17.6271H17.5702H17.5133H17.4507H17.3934H17.3365H17.2796V25.3407V25.2849V25.2292V25.1735V25.1175V25.0618V25.006V24.9503V24.8946V24.8389V24.7832V24.7272V24.6715V24.6157V24.56V24.5043V24.4483V24.3925V24.3368V24.2811V24.2254V24.1697V24.1137V24.058V24.0023V23.9465V23.8908V23.8351V23.7791V23.7233V23.6676V23.612V23.5563V23.5005V23.4445V23.3888V23.3331V23.2774V23.2216V23.1656V23.1099V23.0542V22.9984L17.251 23.043L17.2169 23.0935L17.1883 23.1381L17.1543 23.1827L17.1257 23.2328L17.0912 23.2774L17.063 23.322L17.0343 23.3724L17.0004 23.4169L16.9717 23.4615L16.9374 23.5061L16.9091 23.5566L16.8747 23.6011L16.8464 23.6457L16.8178 23.6958L16.7834 23.7407L16.7551 23.7854L16.7208 23.8354L16.6925 23.88L16.6582 23.9246L16.6299 23.9751L16.6012 24.0196L16.5669 24.0642L16.5386 24.1144L16.5042 24.1592L16.4759 24.2038L16.4416 24.2484L16.4129 24.2985L16.3846 24.3433L16.3503 24.388L16.3221 24.4382L16.2876 24.4827L16.259 24.5272L16.225 24.5778L16.1964 24.6223H16.1738L16.1395 24.5722L16.1109 24.5272L16.0768 24.4771L16.0481 24.4325L16.0141 24.3825L15.9855 24.3375L15.9516 24.2873L15.9229 24.2428L15.8885 24.1927L15.8602 24.1481L15.8258 24.0976L15.7976 24.0531L15.7633 24.0029L15.7346 23.9583L15.7006 23.9079L15.6719 23.8633L15.6379 23.8132L15.6036 23.7686L15.5749 23.7182L15.5409 23.6736L15.5123 23.6234L15.4783 23.5789L15.4497 23.5284L15.4156 23.4838L15.387 23.4337L15.3526 23.3891L15.3243 23.339L15.29 23.294L15.2617 23.2439L15.2274 23.1993L15.1987 23.1492L15.1647 23.1047L15.136 23.0542L15.102 23.0096V23.0653V23.1211V23.1768V23.2328V23.2885V23.3442V23.3999V23.4557V23.5117V23.5674V23.6175V23.6732V23.729V23.7847V23.8407V23.8964V23.9521V24.0078V24.0636V24.1193V24.1753V24.231V24.2867V24.3424V24.3982V24.4539V24.5099V24.5655V24.6213V24.677V24.7328V24.7887V24.8389V24.8946V24.9503V25.006V25.0618V25.1175V25.1735V25.2292V25.2849V25.3407V25.3964H15.0451H14.9879H14.9309H14.874H14.8171H14.7599H14.7029H14.646H14.5891H14.5318H14.4749H14.4179H14.361H14.3038H14.2469H14.1899H14.133H14.0757H14.0188V25.3407V25.2849V25.2292V25.1739V25.1181V25.0624V25.0067V24.951V24.8953V24.8396V24.7839V24.7281V24.6724V24.6167V24.561V24.5053V24.4496V24.3939V24.3437V24.288V24.2323V24.1767V24.1209V24.0651V24.0094V23.9538V23.898V23.8423V23.7866V23.731V23.6752V23.6195V23.5638V23.5081V23.4523V23.3966V23.3409V23.2853V23.2296V23.1738V23.1181V23.0627V23.007V22.9513V22.8955V22.8398V22.7842V22.7284V22.6728V22.617V22.5613V22.5056V22.4498V22.3942V22.3441V22.2884V22.2326V22.1768V22.1212V22.0655V22.0098V21.954V21.8983V21.8426V21.7869V21.7312V21.6755V21.6198V21.5641V21.5083V21.4527V21.397V21.3412H14.0757H14.133H14.1842H14.2411H14.2981H14.3553H14.4065H14.4634H14.5207H14.5776H14.6288H14.6857H14.743H14.8H14.8511H14.908H14.9653H15.0223H15.0734H15.1303H15.1876L15.2159 21.3858L15.2445 21.4359L15.2785 21.4801L15.3072 21.5303L15.3358 21.5748L15.3641 21.6251L15.3927 21.6693L15.4268 21.7194L15.4553 21.764L15.484 21.8086L15.5123 21.8583L15.5409 21.903L15.5749 21.953L15.6036 21.9976L15.6322 22.0474L15.6605 22.092L15.6948 22.1366L15.7235 22.1864L15.7517 22.2309L15.7803 22.2811L15.8087 22.3257L15.8431 22.3755L15.8717 22.4201L15.8999 22.4701L15.9286 22.5144L15.9569 22.559L15.9912 22.6091L16.0198 22.6538L16.0481 22.7039L16.0768 22.7481L16.1051 22.7983L16.1395 22.8429L16.1681 22.8926L16.1964 22.9372L16.225 22.8926L16.2536 22.8429L16.2876 22.7983L16.3162 22.7481L16.3445 22.7039L16.3732 22.6538L16.4073 22.6091L16.4359 22.559L16.4645 22.5144L16.4927 22.4701L16.5271 22.4201L16.5554 22.3755L16.5841 22.3257L16.6127 22.2811L16.6467 22.2309L16.6753 22.1864L16.704 22.1366L16.7322 22.092L16.7609 22.0474L16.7949 21.9976L16.8235 21.953L16.8521 21.903L16.8805 21.8583L16.9148 21.8086L16.9432 21.764L16.9717 21.7194L17.0004 21.6693L17.0343 21.6251L17.063 21.5748L17.0912 21.5303L17.1199 21.4801L17.1543 21.4359L17.1826 21.3858L17.2112 21.3412H17.2681H17.3251H17.3765H17.4335H17.4904H17.5473H17.5989H17.6558H17.7127H17.7697H17.8212H17.8781H17.935H17.992H18.0435H18.1004H18.1573H18.2142H18.2658H18.3227H18.3796V21.397V21.4527V21.5083V21.5641V21.6198V21.6755V21.7312V21.7869V21.8426V21.8983V21.954V22.0098V22.0655V22.1212V22.1768V22.2326V22.2884V22.3441V22.3942V22.4498V22.5056V22.5613V22.617V22.6728V22.7284V22.7842V22.8398V22.8955V22.9513V23.007V23.0627V23.1181V23.1738V23.2296V23.2853V23.3409V23.3966V23.4523V23.5081V23.5638V23.6195V23.6752V23.731V23.7866V23.8423V23.898V23.9538V24.0094V24.0651V24.1209V24.1767V24.2323V24.288V24.3437V24.3939V24.4496V24.5053V24.561V24.6167V24.6724V24.7281V24.7839V24.8396V24.8953V24.951V25.0067V25.0624V25.1181V25.1739V25.2292V25.2849V25.3407V25.3964H18.3227ZM11.7086 23.7254L11.6914 23.6749L11.6689 23.6192L11.6459 23.569L11.6287 23.5186L11.6062 23.4684L11.5833 23.4126L11.5661 23.3622L11.5432 23.3121L11.5207 23.262L11.5035 23.2115L11.4805 23.1558L11.4637 23.1057L11.4407 23.0552L11.4178 23.005L11.4008 22.9548L11.3781 22.8989L11.3553 22.8487L11.338 22.7986L11.3152 22.7481L11.2926 22.6924L11.2754 22.6419L11.2525 22.5918L11.2299 22.6419L11.2129 22.6924L11.1899 22.7481L11.167 22.7986L11.1501 22.8487L11.1272 22.8989L11.1044 22.9548L11.0818 23.005L11.0645 23.0552L11.0416 23.1057L11.0187 23.1558L11.0019 23.2115L10.979 23.262L10.9561 23.3121L10.9389 23.3622L10.9164 23.4126L10.8934 23.4684L10.8706 23.5186L10.8538 23.569L10.8308 23.6192L10.8079 23.6749L10.7907 23.7254L10.7682 23.7755H10.8251H10.882H10.9389H10.9962H11.0531H11.11H11.167H11.2243H11.2754H11.3323H11.3896H11.4465H11.5035H11.5604H11.6173H11.6745H11.7314L11.7086 23.7254ZM13.4988 25.3964H13.4416H13.3903H13.3334H13.2762H13.2193H13.1623H13.1111H13.0539H12.9969H12.94H12.883H12.8258H12.7746H12.7177H12.6607H12.6035H12.5466H12.4954H12.4385H12.3812L12.3587 25.3462L12.3414 25.296L12.3186 25.2459L12.2956 25.1902L12.2788 25.1404L12.256 25.0903L12.233 25.0402L12.2161 24.99L12.1932 24.9398L12.1704 24.8897L12.1533 24.8396L12.1306 24.7839L12.1077 24.7337L12.0905 24.6836L12.0676 24.6335H12.0107H11.9538H11.8968H11.8399H11.7884H11.7314H11.6745H11.6173H11.5604H11.5035H11.4465H11.3896H11.3323H11.2754H11.2243H11.167H11.11H11.0531H10.9962H10.9389H10.882H10.8251H10.7682H10.7113H10.6597H10.6029H10.5459H10.4886H10.4317L10.4092 24.6836L10.3919 24.7337L10.369 24.7839L10.3461 24.8396L10.3293 24.8897L10.3064 24.9398L10.2835 24.99L10.2663 25.0402L10.2437 25.0903L10.2209 25.1404L10.2037 25.1902L10.181 25.2459L10.1582 25.296L10.141 25.3462L10.1181 25.3964H10.0612H10.0042H9.94734H9.89003H9.83319H9.77048H9.71356H9.65665H9.59942H9.54251H9.4856H9.4286H9.37129H9.31446H9.25755H9.19491H9.1376H9.08069H9.02378H8.96686L8.98936 25.3462L9.01233 25.296L9.03522 25.2459L9.0578 25.1902L9.07496 25.1404L9.09794 25.0903L9.12075 25.0402L9.14332 24.99L9.16622 24.9398L9.18919 24.8841L9.21168 24.834L9.23465 24.7839L9.25174 24.7337L9.27472 24.6836L9.29721 24.6335L9.32018 24.5778L9.343 24.5276L9.36565 24.4774L9.38854 24.4273L9.41143 24.3772L9.4286 24.327L9.45118 24.2712L9.47407 24.2212L9.49704 24.1711L9.51954 24.1209L9.54251 24.0707L9.5654 24.0206L9.58797 23.9649L9.60514 23.9148L9.62812 23.8646L9.65093 23.8145L9.67358 23.7644L9.6964 23.7142L9.71929 23.6585L9.74186 23.6083L9.76475 23.5582L9.78192 23.5081L9.8049 23.458L9.82739 23.4078L9.85036 23.3521L9.87325 23.3019L9.89583 23.2518L9.91864 23.2016L9.94161 23.1516L9.95878 23.1013L9.98136 23.0515L10.0042 22.9958L10.0271 22.9457L10.0497 22.8955L10.0726 22.8454L10.0955 22.7953L10.1181 22.7452L10.1352 22.6894L10.1582 22.6393L10.181 22.5891L10.2037 22.5391L10.2266 22.4889L10.2495 22.4387L10.272 22.3829L10.2949 22.3329L10.3121 22.2828L10.335 22.2326L10.3576 22.1824L10.3805 22.1323L10.4034 22.0767L10.4259 22.0265L10.4488 21.9763L10.4718 21.9262L10.4886 21.8761L10.5115 21.8259L10.5344 21.7702L10.5573 21.7201L10.5799 21.6699L10.6029 21.6198L10.6257 21.5696L10.6483 21.5195L10.6655 21.4638L10.6883 21.4137L10.7113 21.3635L10.7339 21.3134H10.7907H10.8423H10.8992H10.9561H11.0133H11.0645H11.1214H11.1784H11.2357H11.2869H11.3438H11.4008H11.458H11.5092H11.5661H11.623H11.6803H11.7314H11.7884L11.8113 21.3635L11.8342 21.4137L11.8569 21.4638L11.8797 21.5195L11.8968 21.5696L11.9194 21.6198L11.9423 21.6699L11.9652 21.7201L11.9882 21.7702L12.0107 21.8259L12.0336 21.8761L12.0565 21.9262L12.0733 21.9763L12.0963 22.0265L12.1192 22.0767L12.1421 22.1323L12.1646 22.1824L12.1875 22.2326L12.2104 22.2828L12.233 22.3329L12.2502 22.3829L12.2731 22.4387L12.2956 22.4889L12.3186 22.5391L12.3414 22.5891L12.3644 22.6393L12.387 22.6894L12.4098 22.7452L12.427 22.7953L12.4496 22.8454L12.4724 22.8955L12.4954 22.9457L12.5183 22.9958L12.5408 23.0515L12.5637 23.1013L12.5866 23.1516L12.6035 23.2016L12.6264 23.2518L12.6493 23.3019L12.6719 23.3521L12.6947 23.4078L12.7177 23.458L12.7406 23.5081L12.7632 23.5582L12.7803 23.6083L12.8032 23.6585L12.8258 23.7142L12.8487 23.7644L12.8716 23.8145L12.8945 23.8646L12.9171 23.9148L12.94 23.9649L12.9571 24.0206L12.9798 24.0707L13.0026 24.1209L13.0256 24.1711L13.0481 24.2212L13.071 24.2712L13.0939 24.327L13.1169 24.3772L13.1337 24.4273L13.1566 24.4774L13.1795 24.5276L13.2021 24.5778L13.2249 24.6335L13.2479 24.6836L13.2707 24.7337L13.2933 24.7839L13.3105 24.834L13.3334 24.8841L13.356 24.9398L13.3789 24.99L13.4017 25.0402L13.4243 25.0903L13.4472 25.1404L13.4701 25.1902L13.4874 25.2459L13.5099 25.296L13.5328 25.3462L13.5557 25.3964H13.4988ZM8.5048 24.8785L8.45894 24.912L8.4192 24.9398L8.37341 24.9733L8.32794 25.0011L8.28248 25.0346L8.23661 25.0624L8.19115 25.0903L8.13964 25.1181L8.08837 25.146L8.03718 25.1739L7.98567 25.1958L7.93448 25.2236L7.87758 25.2459L7.82642 25.2682L7.76913 25.2904L7.71798 25.3128L7.66668 25.3295L7.61521 25.3462L7.56399 25.363L7.50708 25.3797L7.45592 25.3964L7.39864 25.4075L7.34741 25.4186L7.2905 25.4297L7.23328 25.4409L7.17631 25.4465L7.11365 25.4521L7.05675 25.4577L6.99409 25.4632L6.9368 25.4688L6.87421 25.4743H6.81156H6.74884H6.68625H6.62896L6.57205 25.4688L6.5094 25.4632L6.45249 25.4577L6.39559 25.4521L6.33829 25.4465L6.28139 25.4353L6.22442 25.4242L6.17326 25.4131L6.11603 25.402L6.06481 25.3852L6.0079 25.3741L5.95636 25.3573L5.90514 25.3351L5.85392 25.3184L5.79708 25.296L5.74553 25.2738L5.69431 25.2516L5.64315 25.2292L5.59155 25.2014L5.54614 25.1739L5.49492 25.146L5.44913 25.1181L5.40365 25.0903L5.35786 25.0568L5.31238 25.0234L5.26685 24.99L5.2268 24.9565L5.18707 24.9232L5.14696 24.8841L5.10723 24.8508L5.06713 24.8117L5.0274 24.7727L4.99304 24.7337L4.959 24.6891L4.92464 24.6502L4.89602 24.6056L4.86199 24.561L4.83343 24.5165L4.80507 24.4719L4.77646 24.4217L4.74785 24.3772L4.72531 24.327L4.70238 24.2768L4.67951 24.2268L4.6569 24.1767L4.63972 24.1321L4.61679 24.0819L4.60536 24.0317L4.5885 23.9817L4.57706 23.926L4.55989 23.8757L4.54846 23.82L4.54271 23.7699L4.53121 23.7142L4.52559 23.6641L4.51978 23.6083L4.51441 23.5526L4.50873 23.497V23.4357V23.3799V23.3688V23.3131L4.51441 23.2518V23.1961L4.51978 23.1404L4.52559 23.0791L4.53703 23.0238L4.54271 22.968L4.55414 22.9178L4.57132 22.8621L4.58282 22.8064L4.59961 22.7563L4.61679 22.7006L4.63398 22.6504L4.6569 22.5947L4.67951 22.5447L4.70238 22.4945L4.72531 22.4443L4.74785 22.3942L4.77646 22.3441L4.80507 22.2995L4.83343 22.2548L4.86199 22.2103L4.89066 22.1657L4.92464 22.1212L4.959 22.0767L4.99304 22.0321L5.0274 21.993L5.06713 21.954L5.10149 21.915L5.14128 21.8761L5.18132 21.837L5.22105 21.8037L5.26685 21.7646L5.30663 21.7312L5.3521 21.6977L5.3979 21.6699L5.44337 21.6365L5.48923 21.6087L5.53465 21.5808L5.58587 21.5529L5.63741 21.5251L5.68856 21.4972L5.73979 21.4749L5.79126 21.4527L5.84824 21.4248L5.89371 21.4081L5.95062 21.3914L6.00222 21.3691L6.05338 21.3579L6.10454 21.3412L6.16176 21.3301L6.21299 21.3134L6.26989 21.3022L6.32686 21.2966L6.38409 21.2855L6.44105 21.2799L6.4979 21.2744L6.55487 21.2688L6.61216 21.2632H6.67482H6.73172H6.79431H6.85697L6.92 21.2688L6.98266 21.2744H7.03957L7.09647 21.2799L7.15912 21.2911L7.21067 21.2966L7.26758 21.3078L7.32455 21.319L7.37602 21.3301L7.42718 21.3412L7.47846 21.3524L7.53001 21.3691L7.58117 21.3802L7.62664 21.397L7.67818 21.4137L7.72941 21.4359L7.78056 21.4582L7.8321 21.4805L7.88332 21.5083L7.93448 21.5307L7.98035 21.5585L8.03154 21.5864L8.077 21.6142L8.12851 21.642L8.17398 21.6755L8.21944 21.7033L8.26523 21.7368L8.3107 21.7702L8.35656 21.8092L8.40203 21.8426L8.36761 21.8872L8.32794 21.9262L8.29353 21.9707L8.25386 22.0153L8.21944 22.0599L8.18542 22.0989L8.14528 22.1435L8.11134 22.188L8.077 22.2271L8.03718 22.2717L8.00292 22.3162L7.9631 22.3607L7.92874 22.3998L7.89476 22.4443L7.85472 22.4889L7.82061 22.5335L7.78056 22.5725L7.74652 22.617L7.70073 22.5836L7.65525 22.5447L7.60946 22.5167L7.56399 22.4833L7.51851 22.4554L7.47272 22.4275L7.42718 22.3998L7.37602 22.3718L7.33023 22.3496L7.28475 22.3273L7.23896 22.3106L7.18774 22.2939L7.13658 22.2772L7.08504 22.2661L7.02813 22.2548L6.97123 22.2437L6.91426 22.2382L6.8516 22.2326L6.78863 22.2271H6.72598H6.66907L6.61216 22.2326L6.56062 22.2382L6.50371 22.2493L6.45249 22.2605L6.40095 22.2772L6.34979 22.2939L6.29856 22.3162L6.24734 22.3385L6.20155 22.3663L6.15614 22.3942L6.11028 22.4221L6.07056 22.4554L6.03045 22.4889L5.99073 22.5223L5.95636 22.5613L5.91664 22.6003L5.88227 22.6448L5.85392 22.6839L5.82531 22.7284L5.79708 22.7786L5.7684 22.8232L5.74553 22.8733L5.72836 22.9234L5.70574 22.9736L5.68856 23.0293L5.67713 23.0847L5.6657 23.1348L5.6542 23.1961L5.64852 23.2518L5.64315 23.3075V23.3688V23.3799V23.4357L5.64852 23.4914L5.6542 23.5414L5.65995 23.5972L5.67138 23.6473L5.68288 23.6976L5.69431 23.7476L5.71149 23.7977L5.72836 23.8423L5.75128 23.898L5.77415 23.9482L5.80244 23.9983L5.83105 24.0429L5.85967 24.0875L5.89371 24.1321L5.92807 24.1711L5.9678 24.21L6.00222 24.249L6.04188 24.2824L6.08774 24.3159L6.13322 24.3493L6.17863 24.3772L6.22442 24.405L6.2757 24.4273L6.32686 24.4496L6.37834 24.4719L6.43531 24.4886L6.49222 24.5053L6.54951 24.5165L6.60641 24.5276L6.66332 24.5331L6.72598 24.5387H6.78863H6.85697L6.92 24.5331L6.98266 24.5276L7.03957 24.522L7.09647 24.5108L7.15376 24.4997L7.21067 24.483L7.26183 24.4719L7.31312 24.4496L7.35891 24.4273L7.41007 24.405L7.45011 24.3828L7.49565 24.3549V24.2992V24.2435V24.1878V24.1321V24.0707V24.015V23.9593V23.9037V23.8479H7.43868H7.3872H7.33023H7.27332H7.21642H7.16487H7.1079H7.051H6.99409H6.94261H6.88564H6.82874H6.77177H6.72029H6.66332V23.7922V23.7421V23.6863V23.6307V23.5749V23.5248V23.4691V23.4134V23.3577V23.3075V23.2518V23.1961V23.1404V23.0902V23.0349H6.72029H6.77751H6.83448H6.89132H6.9483H7.00521H7.06249H7.1194H7.17631H7.23328H7.2905H7.34741H7.40432H7.46122H7.51851H7.57549H7.63239H7.6893H7.74652H7.80349H7.8604H7.91731H7.97454H8.03154H8.08837H8.14528H8.20259H8.25951H8.3165H8.37341H8.43064H8.48755H8.54447V23.0902V23.1459V23.2016V23.2518V23.3075V23.3632V23.4189V23.4746V23.5303V23.5804V23.6362V23.692V23.7476V23.8033V23.859V23.9148V23.9649V24.0206V24.0763V24.1321V24.1878V24.2435V24.2992V24.3493V24.405V24.4607V24.5165V24.5722V24.6279V24.678V24.7337V24.7894V24.8452L8.5048 24.8785Z" fill="white"/>
<path d="M6.67137 12.1659H9.14195V10.3065H6.67137V6.51051H9.24036V4.65112H4.57336V18.0706H9.27939V16.2111H6.67137V12.1659Z" fill="white"/>
<path d="M24.3676 12.5687V15.5977C24.3676 16.1345 24.1127 16.3836 23.5835 16.3836H23.1911C22.6421 16.3836 22.3871 16.1345 22.3871 15.5977V7.124C22.3871 6.58723 22.6421 6.33817 23.1911 6.33817H23.5441C24.0735 6.33817 24.3285 6.58723 24.3285 7.124V9.75069H26.3872V7.00898C26.3872 5.3413 25.5636 4.53607 23.8581 4.53607H22.8382C21.1324 4.53607 20.289 5.36031 20.289 7.02831V15.6934C20.289 17.3615 21.1324 18.1856 22.8382 18.1856H23.8775C25.5836 18.1856 26.4265 17.3615 26.4265 15.6934V12.5687H24.3676Z" fill="white"/>
<path d="M17.082 18.0707H19.1803V4.65112H17.082V18.0707Z" fill="white"/>
<path d="M14.0373 10.6131C14.0373 11.15 13.7827 11.3994 13.2533 11.3994H12.3904V6.45317H13.2533C13.7827 6.45317 14.0373 6.70229 14.0373 7.239V10.6131ZM13.5864 4.65106H10.2923V18.0706H12.3904V13.2011H13.5864C15.2924 13.2011 16.1354 12.3769 16.1354 10.7092V7.1433C16.1354 5.4753 15.2924 4.65106 13.5864 4.65106Z" fill="white"/>
<path fill-rule="evenodd" clip-rule="evenodd" d="M9.52295 30.2046H21.5336L15.4032 32.1716L9.52295 30.2046Z" fill="white"/>
</g>
</g>
</g>
<defs>
<clipPath id="clip0_980_6380">
<rect width="31" height="35" fill="white"/>
</clipPath>
</defs>
</svg>
