<svg width="97" height="22" viewBox="0 0 97 22" fill="none" xmlns="http://www.w3.org/2000/svg">
<g clip-path="url(#clip0_980_6424)">
<mask id="mask0_980_6424" style="mask-type:luminance" maskUnits="userSpaceOnUse" x="0" y="0" width="97" height="22">
<path d="M97 0H0V21.9394H97V0Z" fill="white"/>
</mask>
<g mask="url(#mask0_980_6424)">
<path d="M14.3132 7.42758C15.9402 7.44776 17.2994 7.99271 18.4321 9.08262C19.5648 10.1725 20.1208 11.4643 20.1208 13.0184L20.0797 20.2441C20.0797 21.112 19.3383 21.7982 18.4115 21.7982C17.5054 21.7982 16.7639 21.0918 16.7845 20.2239L16.8257 12.9982C16.8463 12.3523 16.5786 11.7267 16.0844 11.2826C15.6107 10.8184 15.0134 10.5762 14.2926 10.5762C13.5924 10.556 12.9128 10.8386 12.4391 11.323C11.9655 11.7872 11.7389 12.4129 11.7389 13.0588L11.6977 20.1835C11.6977 21.0514 10.9357 21.7579 10.009 21.7579C9.08221 21.7579 8.34081 21.0312 8.34081 20.1634L8.382 12.9982C8.40259 12.3725 8.15548 11.7468 7.7024 11.3028C7.20813 10.7982 6.5903 10.556 5.84889 10.5358C5.16928 10.5156 4.53083 10.7579 4.05715 11.2221C3.56289 11.6863 3.31575 12.2514 3.31575 12.9175L3.27458 20.123C3.27458 20.9909 2.53318 21.6973 1.60642 21.6771C0.700264 21.6771 -0.0411377 20.9707 -0.0411377 20.1028L5.13867e-05 12.9175C5.13867e-05 11.5652 0.514914 10.2734 1.44167 9.28446C2.65673 8.0129 4.13953 7.36702 5.86947 7.38721C7.51703 7.40739 8.93807 7.97253 10.0708 9.1028C11.2652 7.97253 12.6656 7.42758 14.3132 7.42758ZM35.1548 15.4404L25.702 15.3799C25.7843 16.49 26.155 17.378 26.8347 18.0441C27.5143 18.69 28.3792 19.0331 29.409 19.0331C30.2327 19.0331 30.9124 18.8514 31.4478 18.4881C31.7567 18.2661 32.1068 17.9432 32.4775 17.479C32.9512 16.8936 33.7956 16.7322 34.4752 17.0753L34.5782 17.1358C35.4225 17.5799 35.6079 18.6496 34.9901 19.356C34.8871 19.4771 34.7841 19.5982 34.6606 19.6991C34.2075 20.1634 33.6926 20.5872 33.116 20.9101C32.5599 21.2331 31.9627 21.4551 31.3448 21.5964C30.7064 21.7377 30.0268 21.8184 29.2648 21.8184C27.1436 21.7982 25.4342 21.1523 24.1368 19.8404C22.8599 18.5285 22.2215 16.7927 22.2421 14.6331C22.2627 12.4936 22.9011 10.7579 24.1574 9.44592C25.4342 8.15418 27.1024 7.50831 29.1824 7.52849C31.2831 7.54868 32.9512 8.19455 34.1457 9.46611C35.3402 10.7377 35.9374 12.4936 35.9374 14.7138C35.9374 15.1175 35.5667 15.4404 35.1548 15.4404ZM32.5599 12.8569C32.1068 11.1817 31.0153 10.3542 29.2442 10.334C28.8529 10.334 28.4822 10.3744 28.1115 10.4955C27.7614 10.5964 27.4319 10.778 27.1436 11.0001C26.8552 11.2221 26.6081 11.4845 26.4022 11.7872C26.1756 12.1101 26.0315 12.4533 25.9285 12.8367L32.5599 12.8569ZM50.889 15.4404L41.4361 15.3799C41.5185 16.49 41.8892 17.378 42.5688 18.0441C43.2485 18.69 44.1134 19.0331 45.1431 19.0331C45.9669 19.0331 46.6465 18.8514 47.182 18.4881C47.5115 18.2661 47.841 17.9432 48.2117 17.479C48.6854 16.8936 49.5298 16.7322 50.2094 17.0753L50.3124 17.1358C51.1567 17.5799 51.3421 18.6496 50.7242 19.356C50.6213 19.4771 50.5183 19.5982 50.3947 19.6991C49.9417 20.1634 49.4268 20.5872 48.8501 20.9101C48.2941 21.2331 47.6969 21.4551 47.079 21.5964C46.4406 21.7377 45.761 21.8184 44.999 21.8184C42.8778 21.7982 41.1478 21.1523 39.871 19.8404C38.5941 18.5285 37.9557 16.7927 37.9763 14.6331C37.9969 12.4936 38.6353 10.7579 39.8915 9.44592C41.1684 8.15418 42.8366 7.50831 44.9166 7.52849C47.0172 7.54868 48.6854 8.19455 49.8799 9.46611C51.0744 10.7377 51.6716 12.4936 51.6716 14.7138C51.6716 15.1175 51.3215 15.4404 50.889 15.4404ZM48.2941 12.8569C47.841 11.1817 46.7495 10.3542 44.9784 10.334C44.5871 10.334 44.2164 10.3744 43.8457 10.4955C43.1455 10.7175 42.5482 11.1615 42.1363 11.767C41.9098 12.09 41.7656 12.4331 41.6627 12.8166L48.2941 12.8569ZM69.0945 5.55846e-05C70.0213 5.55846e-05 70.7627 0.72666 70.7627 1.61473L70.7009 8.69913C71.916 7.68996 73.234 7.44776 74.6962 7.46794C76.1378 7.46794 77.6618 8.09363 78.6504 9.1028C79.4947 9.99088 79.886 11.4037 79.886 13.3413L79.8448 20.2239C79.8448 21.112 79.0828 21.8184 78.1561 21.8184C77.2293 21.8184 76.4673 21.0918 76.4879 20.2037L76.5291 13.6239C76.5291 12.5138 76.3438 11.7065 75.9319 11.2221C75.52 10.7175 74.861 10.4753 73.9342 10.4753C72.7603 10.4753 71.916 10.8184 71.4423 11.4845C70.9686 12.1909 70.7215 13.3817 70.7009 15.0973L70.6597 20.2037C70.6597 21.0918 69.8977 21.7982 68.9504 21.778C68.0236 21.778 67.2822 21.0514 67.2822 20.1634L67.4264 1.63492C67.4058 0.686295 68.1678 -0.0201279 69.0945 5.55846e-05ZM81.8837 14.6936C81.9043 12.7762 82.6251 11.1615 84.0873 9.82941C85.5289 8.4973 87.3 7.83125 89.3801 7.85143C91.4601 7.87161 93.2313 8.55785 94.6729 9.91014C96.0939 11.2624 96.7941 12.9377 96.7941 14.8955C96.7735 16.8936 96.0527 18.5285 94.5905 19.8808C93.1283 21.2129 91.3366 21.8588 89.2359 21.8386C87.1353 21.8184 85.3848 21.1322 83.9843 19.7597C82.5633 18.4276 81.8631 16.7322 81.8837 14.6936ZM85.1788 14.7744C85.1788 16.1065 85.5289 17.1358 86.2703 17.923C87.0323 18.7101 88.0415 19.1138 89.2977 19.1138C90.554 19.1138 91.5631 18.7505 92.3251 17.9835C93.0871 17.2166 93.4784 16.1872 93.4784 14.9156C93.4784 13.6239 93.1283 12.5945 92.3663 11.8276C91.6043 11.0404 90.5952 10.6368 89.3389 10.6368C88.1032 10.6368 87.1147 11.0202 86.3321 11.7872C85.5907 12.534 85.1994 13.5432 85.1788 14.7744ZM63.5546 14.4918C64.5637 15.2184 65.0786 16.167 65.0992 17.3175V17.3579C65.0992 18.7707 64.5431 19.9212 63.4722 20.7083C62.5043 21.4349 61.1656 21.8184 59.6005 21.8184C57.9323 21.8184 56.1818 21.3542 54.6578 20.5267C53.8546 20.1028 53.6075 19.1138 54.1223 18.367C54.4313 17.9432 54.9255 17.6808 55.461 17.6808C55.7493 17.6808 56.017 17.7413 56.2436 17.8826C57.3969 18.5083 58.5913 18.8514 59.6828 18.8514C61.3922 18.8514 61.5775 18.0441 61.5775 17.6808V17.6404C61.5775 16.934 60.589 16.5909 58.9826 16.1267C58.8797 16.0863 58.7561 16.0661 58.6531 16.0257C57.5822 15.7432 56.4701 15.3799 55.6051 14.7744C54.5754 14.0478 54.0812 13.0991 54.0812 11.8478V11.8074C54.0812 9.26427 56.2642 7.48813 59.3533 7.48813C60.6508 7.48813 62.0924 7.79088 63.3899 8.3762C63.7811 8.55785 64.1107 8.88079 64.2548 9.28446C64.399 9.68813 64.3372 10.1322 64.1313 10.4955C63.8429 10.9799 63.3075 11.2826 62.7308 11.2826C62.5043 11.2826 62.2572 11.2423 62.0512 11.1413C61.0421 10.6973 60.0947 10.4551 59.2915 10.4551C58.2824 10.4551 57.6234 10.8588 57.6234 11.4845V11.5248C57.6234 12.2514 58.9208 12.6551 60.3213 13.079L60.589 13.1597C61.5775 13.4826 62.669 13.8661 63.5546 14.4918Z" fill="#AEAEAE"/>
</g>
</g>
<defs>
<clipPath id="clip0_980_6424">
<rect width="97" height="22" fill="white"/>
</clipPath>
</defs>
</svg>
