<svg width="62" height="19" viewBox="0 0 62 19" fill="none" xmlns="http://www.w3.org/2000/svg">
<path d="M9.20833 0C14.2913 0 18.4167 4.07682 18.4167 9.10002C18.4167 14.1232 14.2913 18.2 9.20833 18.2C4.12533 18.2 0 14.1232 0 9.10002C0 4.07682 4.12533 0 9.20833 0ZM9.20833 2.40242C5.45133 2.40242 2.431 5.38722 2.431 9.10002C2.431 12.8128 5.45133 15.7976 9.20833 15.7976C12.9653 15.7976 15.9857 12.8128 15.9857 9.10002C15.9857 5.38722 12.9653 2.40242 9.20833 2.40242ZM56.5392 6.15162C59.2648 6.15162 61.217 8.11722 61.217 10.4468V10.4832C61.217 12.8128 59.2648 14.8148 56.5023 14.8148C53.7767 14.8148 51.8245 12.8492 51.8245 10.5196V10.4832C51.8245 8.15362 53.7767 6.15162 56.5392 6.15162ZM24.8257 3.60362C24.9362 3.56722 25.0467 3.67642 25.0467 3.74922V6.37002H29.9455C30.056 6.37002 30.1297 6.44282 30.1665 6.51562L30.5717 8.00802L30.94 9.50042L30.9768 9.57322L31.0137 9.42762L31.9345 6.40642C31.9713 6.33362 32.0818 6.26082 32.1555 6.26082H34.5865C34.697 6.26082 34.7707 6.33362 34.8075 6.40642L35.7652 9.64602L35.802 9.50042L36.6123 6.47922C36.6492 6.40642 36.7597 6.33362 36.8333 6.33362H43.095C43.1687 6.33362 43.2423 6.40642 43.2423 6.51562V14.4508C43.2423 14.5236 43.1687 14.5964 43.095 14.5964H39.9642C39.8905 14.5964 39.8168 14.5236 39.8168 14.4508V6.80682L37.4595 14.4508C37.4227 14.5236 37.3122 14.5964 37.2385 14.5964H34.6602C34.5497 14.5964 34.476 14.5236 34.4392 14.4508L33.9235 12.8492L33.371 11.102L32.266 14.4872C32.2292 14.56 32.1187 14.6328 32.045 14.6328H29.4667C29.3562 14.6328 29.2825 14.56 29.2457 14.4872L26.9252 6.87962V8.84522C26.9252 8.91802 26.8515 8.99082 26.7778 8.99082H25.0098V11.0656C25.0098 11.6844 25.3045 11.9028 25.857 11.9028C26.1517 11.9028 26.4095 11.8664 26.741 11.7208C26.8147 11.7208 26.9252 11.7572 26.9252 11.8664V14.2688C26.3727 14.56 25.5623 14.742 24.7152 14.742C22.6893 14.742 21.5843 13.7956 21.5843 11.7936V8.95442H20.774C20.7003 8.95442 20.6267 8.88162 20.6267 8.80882V6.47922C20.6267 6.40642 20.7003 6.33362 20.774 6.33362H21.5843V4.69562C21.5843 4.62282 21.6212 4.58642 21.7317 4.55002L24.8257 3.60362ZM47.2203 3.56722C47.294 3.56722 47.3677 3.64002 47.3677 3.71282V14.4508C47.3677 14.5236 47.294 14.5964 47.2203 14.5964H44.0895C44.0158 14.5964 43.9422 14.5236 43.9422 14.4508V3.71282C43.9422 3.64002 44.0158 3.56722 44.0895 3.56722H47.2203ZM51.3457 6.33362C51.4193 6.33362 51.493 6.40642 51.493 6.51562V14.4508C51.493 14.5236 51.4193 14.5964 51.3457 14.5964H48.2148C48.1412 14.5964 48.0675 14.5236 48.0675 14.4508V6.47922C48.0675 6.40642 48.1412 6.33362 48.2148 6.33362H51.3457ZM11.492 9.46402C12.5498 9.46402 13.4073 10.3114 13.4073 11.3568C13.4073 12.4021 12.5498 13.2496 11.492 13.2496C10.4342 13.2496 9.57667 12.4021 9.57667 11.3568C9.57667 10.3114 10.4342 9.46402 11.492 9.46402ZM6.92467 9.46402C7.98249 9.46402 8.84 10.3114 8.84 11.3568C8.84 12.4021 7.98249 13.2496 6.92467 13.2496C5.86684 13.2496 5.00933 12.4021 5.00933 11.3568C5.00933 10.3114 5.86684 9.46402 6.92467 9.46402ZM56.5023 8.99082C55.7288 8.99082 55.1763 9.60962 55.1763 10.4104V10.4468C55.1763 11.2476 55.7657 11.9028 56.5392 11.9028C57.3127 11.9028 57.8652 11.284 57.8652 10.4832C57.8652 9.64602 57.2758 8.99082 56.5023 8.99082ZM11.492 4.95042C12.5498 4.95042 13.4073 5.79784 13.4073 6.84322C13.4073 7.88853 12.5498 8.73602 11.492 8.73602C10.4342 8.73602 9.57667 7.88853 9.57667 6.84322C9.57667 5.79784 10.4342 4.95042 11.492 4.95042ZM6.92467 4.95042C7.98249 4.95042 8.84 5.79784 8.84 6.84322C8.84 7.88853 7.98249 8.73602 6.92467 8.73602C5.86684 8.73602 5.00933 7.88853 5.00933 6.84322C5.00933 5.79784 5.86684 4.95042 6.92467 4.95042ZM43.1318 3.56722C43.2423 3.56722 43.316 3.64002 43.2792 3.71282V5.56922C43.2792 5.64202 43.2055 5.71482 43.1318 5.71482H39.8905C39.8168 5.71482 39.7432 5.64202 39.7432 5.56922V3.71282C39.7432 3.64002 39.8168 3.56722 39.8905 3.56722H43.1318ZM51.3825 3.56722C51.493 3.56722 51.5667 3.64002 51.5298 3.71282V5.56922C51.5298 5.64202 51.4562 5.71482 51.3825 5.71482H48.1412C48.0675 5.71482 47.9938 5.64202 47.9938 5.56922V3.71282C47.9938 3.64002 48.0675 3.56722 48.1412 3.56722H51.3825Z" fill="#D3D3D3"/>
</svg>
