<svg width="59" height="31" viewBox="0 0 59 31" fill="none" xmlns="http://www.w3.org/2000/svg">
<mask id="mask0_980_6363" style="mask-type:luminance" maskUnits="userSpaceOnUse" x="0" y="0" width="59" height="31">
<path d="M59 0H0V31H59V0Z" fill="white"/>
</mask>
<g mask="url(#mask0_980_6363)">
<path d="M13.1253 30.6068V27.8865L13.0718 27.9098C12.4559 28.2067 11.7859 28.376 11.1024 28.4075C10.392 28.4629 9.68592 28.2557 9.11931 27.8255C8.71464 27.5146 8.41381 27.0892 8.25617 26.6051C8.08223 26.0776 8.0621 25.5119 8.19828 24.9735C8.32461 24.4229 8.6344 23.9311 9.07724 23.578C9.46998 23.251 9.94989 23.045 10.4583 22.9852C11.3569 22.886 12.2648 23.0554 13.0663 23.4719L13.1253 23.5024V20.7668L13.0007 20.7336C12.1983 20.477 11.3558 20.3672 10.514 20.4095C9.74735 20.429 8.99228 20.6011 8.29331 20.9153C7.58767 21.237 6.96546 21.7155 6.47469 22.314C5.72883 23.2537 5.31488 24.4119 5.29691 25.6094C5.27894 26.8068 5.65794 27.9768 6.37527 28.9383C7.10116 29.8627 8.12019 30.5151 9.26625 30.789C10.4742 31.0816 11.7399 31.037 12.9248 30.6617L13.1253 30.6068Z" fill="#D3D3D3"/>
<path d="M40.167 30.6068V27.8865L40.1135 27.9098C39.4976 28.2067 38.8276 28.376 38.1441 28.4075C37.4336 28.4629 36.7276 28.2557 36.161 27.8255C35.7564 27.5146 35.4555 27.0892 35.2978 26.6051C35.1239 26.0776 35.1038 25.5119 35.2399 24.9735C35.3663 24.4229 35.6761 23.9311 36.1189 23.578C36.5116 23.251 36.9915 23.045 37.5 22.9852C38.3986 22.886 39.3065 23.0554 40.108 23.4719L40.167 23.5024V20.7668L40.0424 20.7336C39.2399 20.477 38.3975 20.3672 37.5556 20.4095C36.789 20.429 36.0339 20.6011 35.335 20.9153C34.6293 21.237 34.0072 21.7155 33.5164 22.314C32.7705 23.2537 32.3566 24.4119 32.3386 25.6094C32.3206 26.8068 32.6996 27.9768 33.417 28.9383C34.1428 29.8627 35.1619 30.5151 36.308 30.789C37.5158 31.0816 38.7816 31.037 39.9665 30.6617L40.167 30.6068Z" fill="#D3D3D3"/>
<path fill-rule="evenodd" clip-rule="evenodd" d="M22.7751 28.3486L22.7647 30.6916L22.9368 30.721C23.4771 30.8216 24.0223 30.8912 24.5702 30.9304C25.05 30.9746 25.5324 30.9838 26.0135 30.9581C26.4735 30.9254 26.9286 30.8395 27.3684 30.7035C27.8851 30.5581 28.3645 30.3038 28.7739 29.958C29.1426 29.6446 29.4243 29.2423 29.5923 28.7897C29.8854 28.0319 29.8795 27.1918 29.5759 26.4381C29.4163 26.0469 29.1647 25.6997 28.8422 25.4254C28.5306 25.1458 28.1642 24.9334 27.766 24.8016L25.9906 24.1457C25.7785 24.056 25.6063 23.8927 25.506 23.6862C25.4674 23.6013 25.4491 23.5088 25.4525 23.4157C25.4559 23.3226 25.481 23.2317 25.5257 23.1499C25.5575 23.0919 25.5975 23.0385 25.6442 22.9916C25.7202 22.9143 25.8089 22.8505 25.9065 22.8029C26.1048 22.705 26.3189 22.6435 26.5391 22.6196C26.9147 22.5657 27.2965 22.5697 27.671 22.6316C28.1135 22.6794 28.5522 22.7572 28.9832 22.8654L29.075 22.8856V20.7243L28.9056 20.6878C28.4656 20.583 28.0198 20.504 27.5705 20.4513C26.9881 20.3739 26.3982 20.3713 25.8152 20.4436C25.0767 20.511 24.3741 20.7924 23.7945 21.2529C23.4015 21.56 23.1026 21.9703 22.9313 22.4374C22.6736 23.1491 22.6731 23.928 22.9297 24.6401C23.0619 24.9936 23.2738 25.3128 23.5503 25.5723C23.789 25.8017 24.0594 25.9964 24.3533 26.1514C24.7401 26.3581 25.1498 26.5185 25.5743 26.629C25.7147 26.6708 25.854 26.7149 25.9928 26.7611L26.2031 26.8378L26.2632 26.8623C26.4708 26.9363 26.6598 27.0526 26.8193 27.2038C26.9297 27.3072 27.0149 27.4339 27.0679 27.5753C27.1006 27.7042 27.1012 27.8391 27.0695 27.9685C27.003 28.1769 26.8571 28.3511 26.6631 28.4536C26.4517 28.563 26.2226 28.6343 25.9862 28.6641C25.6394 28.7189 25.2879 28.7366 24.9373 28.7168C24.4777 28.6825 24.0204 28.6219 23.5678 28.5352C23.3312 28.4863 23.0958 28.4319 22.8625 28.3704L22.7751 28.3486ZM16.6871 30.7862H19.2711V20.5829H16.6871V30.7862ZM46.6018 23.5959C46.878 23.3719 47.196 23.2047 47.5374 23.1039C47.8789 23.003 48.2371 22.9705 48.5912 23.0082C48.9454 23.0461 49.2885 23.1533 49.6007 23.3239C49.913 23.4945 50.1882 23.725 50.4104 24.002C50.6327 24.2792 50.7976 24.5974 50.8955 24.9382C50.9935 25.2792 51.0226 25.636 50.9813 25.9882C50.9399 26.3404 50.8288 26.6809 50.6544 26.9901C50.48 27.2993 50.2458 27.571 49.9654 27.7895C49.4056 28.2202 48.6982 28.4146 47.9958 28.3306C47.2934 28.2466 46.6523 27.8911 46.2109 27.3408C45.7694 26.7904 45.563 26.0894 45.6361 25.3889C45.7092 24.6884 46.0561 24.044 46.6018 23.5959ZM42.8504 25.6892C42.8627 26.4856 43.0528 27.2693 43.4071 27.9834C43.7613 28.6976 44.2708 29.3243 44.8985 29.8182C45.5262 30.312 46.2564 30.6606 47.0362 30.8387C47.816 31.0168 48.6258 31.0198 49.407 30.8477C50.4562 30.651 51.4205 30.1413 52.1717 29.386C52.9229 28.6307 53.4255 27.6657 53.6127 26.6193C53.7999 25.5729 53.6628 24.4946 53.2196 23.5276C52.7765 22.5606 52.0483 21.7507 51.1317 21.2056C50.3177 20.704 49.3849 20.4257 48.4279 20.399C47.471 20.3723 46.524 20.5979 45.683 21.0532C44.842 21.5086 44.1369 22.1772 43.6394 22.9914C43.1418 23.8056 42.8699 24.7363 42.8504 25.6892Z" fill="#D3D3D3"/>
<path d="M0 12.3831C0.0183958 12.6224 0.104158 12.8517 0.247454 13.0447C0.390749 13.2377 0.585776 13.3866 0.810174 13.4743C1.03458 13.562 1.27926 13.585 1.51618 13.5406C1.75309 13.4963 1.97265 13.3863 2.14968 13.2234C2.38677 13.0042 2.53209 12.704 2.55612 12.3831V9.55505C2.54921 9.22211 2.41152 8.90522 2.17259 8.67217C1.93366 8.43919 1.61252 8.30872 1.27806 8.30872C0.943604 8.30872 0.622463 8.43919 0.383533 8.67217C0.144603 8.90522 0.00691371 9.22211 0 9.55505V12.3831Z" fill="#D3D3D3"/>
<path d="M7.07452 12.3831C7.09903 12.704 7.24431 13.0039 7.48135 13.2228C7.71832 13.4418 8.02956 13.5635 8.35288 13.5638C8.6762 13.5638 8.98751 13.442 9.22448 13.2231C9.46146 13.0041 9.60653 12.7041 9.63068 12.3831V6.04334C9.61881 5.71378 9.47895 5.40165 9.24059 5.17267C9.00216 4.9437 8.68384 4.81573 8.3526 4.81573C8.02137 4.81573 7.70305 4.9437 7.46462 5.17267C7.22626 5.40165 7.08639 5.71378 7.07452 6.04334V12.3831Z" fill="#D3D3D3"/>
<path d="M14.1119 14.9365C14.1351 15.2582 14.2797 15.5592 14.5169 15.7788C14.754 15.9986 15.0658 16.1207 15.3897 16.1207C15.7137 16.1207 16.0255 15.9986 16.2626 15.7788C16.4997 15.5592 16.6443 15.2582 16.6675 14.9365V1.22312C16.6509 0.896892 16.509 0.589474 16.2712 0.364414C16.0334 0.139354 15.7178 0.013855 15.3897 0.013855C15.0616 0.013855 14.7461 0.139354 14.5082 0.364414C14.2704 0.589474 14.1286 0.896892 14.1119 1.22312V14.9365Z" fill="#D3D3D3"/>
<path d="M21.2099 12.3831C21.2344 12.704 21.3797 13.0039 21.6167 13.2228C21.8537 13.4418 22.165 13.5635 22.4883 13.5638C22.8116 13.5638 23.1229 13.442 23.3599 13.2231C23.5969 13.0041 23.7419 12.7041 23.7661 12.3831V6.04334C23.7542 5.71378 23.6144 5.40165 23.376 5.17267C23.1376 4.9437 22.8192 4.81573 22.488 4.81573C22.1568 4.81573 21.8384 4.9437 21.6 5.17267C21.3617 5.40165 21.2218 5.71378 21.2099 6.04334V12.3831Z" fill="#D3D3D3"/>
<path d="M28.2708 12.3831C28.2892 12.6224 28.375 12.8517 28.5183 13.0447C28.6616 13.2377 28.8566 13.3866 29.081 13.4743C29.3054 13.562 29.5501 13.585 29.787 13.5406C30.0239 13.4963 30.2435 13.3863 30.4205 13.2234C30.6576 13.0042 30.8029 12.704 30.8269 12.3831V9.55505C30.8201 9.22211 30.6823 8.90522 30.4434 8.67217C30.2044 8.43919 29.8833 8.30872 29.5489 8.30872C29.2144 8.30872 28.8933 8.43919 28.6543 8.67217C28.4154 8.90522 28.2777 9.22211 28.2708 9.55505V12.3831Z" fill="#D3D3D3"/>
<path d="M35.3454 12.3831C35.3699 12.704 35.5152 13.0039 35.7521 13.2228C35.9892 13.4418 36.3004 13.5635 36.6237 13.5638C36.947 13.5638 37.2584 13.442 37.4953 13.2231C37.7323 13.0041 37.8774 12.7041 37.9015 12.3831V6.04334C37.8897 5.71378 37.7498 5.40165 37.5114 5.17267C37.273 4.9437 36.9547 4.81573 36.6234 4.81573C36.2921 4.81573 35.9738 4.9437 35.7355 5.17267C35.497 5.40165 35.3572 5.71378 35.3454 6.04334V12.3831Z" fill="#D3D3D3"/>
<path d="M42.3828 14.9365C42.4059 15.2582 42.5506 15.5592 42.7877 15.7788C43.0247 15.9986 43.3366 16.1207 43.6606 16.1207C43.9844 16.1207 44.2964 15.9986 44.5334 15.7788C44.7705 15.5592 44.9152 15.2582 44.9384 14.9365V1.22312C44.9217 0.896892 44.7799 0.589474 44.5421 0.364414C44.3042 0.139354 43.9887 0.013855 43.6606 0.013855C43.3324 0.013855 43.0168 0.139354 42.779 0.364414C42.5412 0.589474 42.3993 0.896892 42.3828 1.22312V14.9365Z" fill="#D3D3D3"/>
<path d="M49.4808 12.3831C49.5053 12.704 49.6506 13.0039 49.8876 13.2228C50.1245 13.4418 50.4358 13.5635 50.7591 13.5638C51.0824 13.5638 51.3938 13.442 51.6308 13.2231C51.8677 13.0041 52.0128 12.7041 52.0369 12.3831V6.04334C52.025 5.71378 51.8852 5.40165 51.6468 5.17267C51.4084 4.9437 51.0901 4.81573 50.7588 4.81573C50.4276 4.81573 50.1093 4.9437 49.8709 5.17267C49.6325 5.40165 49.4927 5.71378 49.4808 6.04334V12.3831Z" fill="#D3D3D3"/>
<path d="M56.4734 12.3831C56.4918 12.6224 56.5775 12.8517 56.7209 13.0447C56.8641 13.2377 57.0592 13.3866 57.2836 13.4743C57.5079 13.562 57.7527 13.585 57.9896 13.5406C58.2265 13.4963 58.446 13.3863 58.623 13.2234C58.8601 13.0042 59.0055 12.704 59.0295 12.3831V9.55505C59.0226 9.22211 58.8849 8.90522 58.646 8.67217C58.407 8.43919 58.0859 8.30872 57.7514 8.30872C57.417 8.30872 57.0958 8.43919 56.8569 8.67217C56.618 8.90522 56.4803 9.22211 56.4734 9.55505V12.3831Z" fill="#D3D3D3"/>
</g>
</svg>
