<svg width="11" height="11" viewBox="0 0 11 11" fill="none" xmlns="http://www.w3.org/2000/svg">
<path d="M9.93743 1.88886e-06C10.151 0.000983231 10.3556 0.0862709 10.5066 0.237311C10.6577 0.388351 10.743 0.592923 10.7439 0.806523L10.7439 8.41522C10.7478 8.52353 10.7297 8.6315 10.6909 8.73269C10.6521 8.83388 10.5933 8.92621 10.5181 9.00419C10.4428 9.08216 10.3526 9.14417 10.2528 9.18653C10.1531 9.22888 10.0458 9.25071 9.93743 9.25071C9.82905 9.25071 9.72178 9.22888 9.62203 9.18653C9.52227 9.14417 9.43207 9.08216 9.3568 9.00419C9.28153 8.92621 9.22273 8.83388 9.18392 8.73269C9.14511 8.6315 9.12708 8.52353 9.1309 8.41522L9.1309 2.75435L1.37764 10.5076C1.2263 10.659 1.02103 10.744 0.806991 10.744C0.592955 10.744 0.387686 10.659 0.23634 10.5076C0.0849934 10.3563 -3.22577e-05 10.151 -3.22577e-05 9.93696C-3.25949e-05 9.72292 0.0849934 9.51765 0.23634 9.36631L7.9896 1.61305L2.32873 1.61305C2.11975 1.60567 1.9218 1.51747 1.77657 1.36702C1.63134 1.21657 1.55018 1.01563 1.55018 0.806523C1.55018 0.597417 1.63134 0.396473 1.77657 0.246027C1.9218 0.0955808 2.11975 0.00737854 2.32873 2.09959e-06L9.93743 1.88886e-06Z" fill="#FBFBFB"/>
</svg>
